<?xml version="1.0" standalone="no"?>
<!DOCTYPE svg PUBLIC "-//W3C//DTD SVG 20010904//EN"
 "http://www.w3.org/TR/2001/REC-SVG-20010904/DTD/svg10.dtd">
<svg version="1.0" xmlns="http://www.w3.org/2000/svg"
 width="360.000000pt" height="360.000000pt" viewBox="0 0 360.000000 360.000000"
 preserveAspectRatio="xMidYMid meet">

<g transform="translate(0.000000,360.000000) scale(0.100000,-0.100000)"
fill="#000000" stroke="none">
<path d="M940 2650 l0 -130 160 0 160 0 0 130 0 130 -160 0 -160 0 0 -130z"/>
<path d="M2340 2650 l0 -130 160 0 160 0 0 130 0 130 -160 0 -160 0 0 -130z"/>
<path d="M940 2430 c0 -19 7 -20 160 -20 153 0 160 1 160 20 0 19 -7 20 -160
20 -153 0 -160 -1 -160 -20z"/>
<path d="M2340 2430 c0 -19 7 -20 160 -20 153 0 160 1 160 20 0 19 -7 20 -160
20 -153 0 -160 -1 -160 -20z"/>
<path d="M943 1933 c4 -459 4 -456 82 -618 147 -304 434 -486 770 -488 340 -2
641 187 784 493 74 160 74 158 78 613 l4 407 -160 0 -161 0 0 -332 c0 -255 -4
-349 -15 -403 -52 -248 -267 -426 -514 -427 -104 0 -165 13 -251 55 -88 42
-196 150 -238 237 -55 113 -62 168 -62 538 l0 332 -161 0 -160 0 4 -407z"/>
</g>
</svg>
