<?xml version="1.0" standalone="no"?>
<!DOCTYPE svg PUBLIC "-//W3C//DTD SVG 20010904//EN"
 "http://www.w3.org/TR/2001/REC-SVG-20010904/DTD/svg10.dtd">
<svg version="1.0" xmlns="http://www.w3.org/2000/svg"
 width="800.000000pt" height="600.000000pt" viewBox="0 0 800.000000 600.000000"
 preserveAspectRatio="xMidYMid meet">

<g transform="translate(0.000000,600.000000) scale(0.100000,-0.100000)"
fill="#000000" stroke="none">
<path d="M15 2995 c0 -1650 1 -2324 2 -1497 2 827 2 2177 0 3000 -1 823 -2
147 -2 -1503z"/>
<path d="M30 3000 l0 -2990 3985 0 3985 0 0 2975 0 2975 -3977 3 -3978 2 3978
3 c2668 1 3977 5 3977 12 0 7 -1310 10 -3985 10 l-3985 0 0 -2990z m50 2934
c0 -2 -7 -4 -15 -4 -8 0 -15 4 -15 10 0 5 7 7 15 4 8 -4 15 -8 15 -10z m77 0
c-3 -3 -12 -4 -19 -1 -8 3 -5 6 6 6 11 1 17 -2 13 -5z m-87 -5864 c15 0 12
-17 -5 -24 -13 -5 -15 325 -13 2937 l3 2942 2 -2927 c2 -1941 6 -2928 13
-2928z m5626 4868 c0 -9 -2 -15 -5 -13 -2 3 -16 -4 -31 -15 -16 -11 -35 -17
-44 -14 -23 9 -20 26 4 19 12 -4 29 1 42 10 l23 17 -30 -7 c-27 -6 -28 -5 -12
7 26 19 53 17 53 -4z m35 15 c-10 -4 -8 -9 10 -19 14 -8 18 -13 9 -13 -23 -1
-43 15 -36 28 4 6 13 11 19 10 7 0 6 -3 -2 -6z m26 -49 c-3 -3 -12 -4 -19 -1
-8 3 -5 6 6 6 11 1 17 -2 13 -5z m-132 -43 c-6 -5 -25 10 -25 20 0 5 6 4 14
-3 8 -7 12 -15 11 -17z m173 15 l37 2 -28 -14 c-22 -12 -31 -13 -43 -3 -8 6
-14 17 -13 23 0 8 2 8 5 0 3 -6 21 -10 42 -8z m-602 -8 c4 -6 3 -8 -4 -4 -6 3
-15 -2 -21 -11 -6 -10 -11 -13 -11 -7 0 9 19 34 26 34 2 0 6 -5 10 -12z m191
6 c-3 -3 -12 -4 -19 -1 -8 3 -5 6 6 6 11 1 17 -2 13 -5z m73 -10 c0 -2 -7 -4
-15 -4 -8 0 -15 4 -15 10 0 5 7 7 15 4 8 -4 15 -8 15 -10z m102 -9 c25 -29 40
-33 31 -8 -6 15 -5 16 9 3 13 -13 14 -16 2 -23 -8 -4 -19 -5 -24 -2 -5 3 -20
1 -32 -6 -22 -11 -22 -10 -6 7 16 16 16 18 -4 36 -12 10 -16 18 -9 18 6 0 21
-11 33 -25z m-159 -2 c-7 -2 -21 -2 -30 0 -10 3 -4 5 12 5 17 0 24 -2 18 -5z
m122 -3 c3 -6 -1 -7 -9 -4 -18 7 -21 14 -7 14 6 0 13 -4 16 -10z m315 0 c0 -5
-2 -10 -4 -10 -3 0 -8 5 -11 10 -3 6 -1 10 4 10 6 0 11 -4 11 -10z m-350 -11
c14 -1 0 -5 -30 -8 -30 -3 -57 -5 -60 -3 -10 7 26 21 45 17 11 -2 31 -5 45 -6z
m310 -14 c-7 -9 -15 -13 -17 -11 -7 7 7 26 19 26 6 0 6 -6 -2 -15z m34 -17 c1
-7 5 -20 10 -28 7 -12 6 -13 -4 -3 -8 7 -15 23 -17 35 -2 12 -1 19 3 16 3 -3
6 -12 8 -20z m-539 -20 c3 -3 -12 -4 -35 -3 -45 3 -58 -8 -38 -33 12 -15 11
-16 -4 -4 -9 7 -16 21 -15 31 1 14 10 17 44 16 23 0 45 -3 48 -7z m575 2 c0
-5 -2 -10 -4 -10 -3 0 -8 5 -11 10 -3 6 -1 10 4 10 6 0 11 -4 11 -10z m44 -6
c6 -15 4 -15 -11 -3 -10 7 -20 15 -22 16 -2 2 3 3 11 3 9 0 19 -7 22 -16z
m-182 -23 c-2 -9 3 -11 15 -7 12 4 11 1 -4 -10 -13 -9 -23 -25 -23 -35 0 -11
-4 -19 -9 -19 -4 0 -7 -12 -4 -27 3 -24 2 -25 -6 -8 -5 11 -7 30 -4 41 3 16
-4 27 -31 44 -20 12 -36 24 -36 27 0 2 15 -5 34 -16 38 -24 59 -28 30 -6 -16
13 -17 16 -4 25 20 13 46 7 42 -9z m186 -30 c-2 -9 3 -15 10 -13 8 1 11 -2 7
-8 -5 -8 -11 -8 -21 1 -7 6 -11 16 -8 21 3 5 -2 19 -13 31 l-18 22 23 -19 c12
-11 21 -26 20 -35z m-658 33 c0 -8 -19 -13 -24 -6 -3 5 1 9 9 9 8 0 15 -2 15
-3z m625 -14 c3 -6 -1 -7 -9 -4 -18 7 -21 14 -7 14 6 0 13 -4 16 -10z m-498
-6 c-3 -3 -12 -4 -19 -1 -8 3 -5 6 6 6 11 1 17 -2 13 -5z m83 -15 c0 -11 -3
-11 -24 -3 -23 9 -20 23 4 17 11 -3 20 -9 20 -14z m-110 -9 c-8 -5 -9 -13 -5
-21 5 -8 -1 -6 -12 4 -14 12 -23 15 -28 8 -3 -6 -1 -11 4 -11 6 0 11 -4 11
-10 0 -16 -17 -11 -24 7 -8 19 11 34 32 25 10 -3 13 -1 8 6 -5 8 -2 10 9 5 12
-4 13 -8 5 -13z m53 3 c-7 -2 -19 -2 -25 0 -7 3 -2 5 12 5 14 0 19 -2 13 -5z
m121 -33 c-5 -5 -10 3 -11 18 -1 22 0 24 9 8 6 -10 6 -22 2 -26z m-390 -1
c-15 -29 -15 -50 -1 -60 4 -3 0 -12 -9 -20 -13 -10 -16 -10 -10 -1 4 7 2 19
-4 27 -10 12 -10 18 0 30 6 8 9 19 5 25 -8 14 1 27 19 27 13 0 13 -4 0 -28z
m56 16 c-7 -8 -16 -12 -21 -9 -5 3 -12 -8 -15 -25 -4 -17 -10 -28 -15 -25 -14
8 -11 19 16 48 26 28 58 38 35 11z m625 -35 c-4 -6 -14 -9 -22 -6 -9 4 -23 -3
-34 -15 l-19 -22 0 21 c0 12 5 22 10 22 6 0 10 5 10 10 0 6 6 17 13 25 10 11
15 11 31 -5 10 -10 15 -23 11 -30z m164 36 c17 -20 -13 -43 -34 -26 -12 10
-13 16 -4 26 6 8 15 14 19 14 4 0 13 -6 19 -14z m-705 -17 c-3 -6 -2 -14 4
-18 6 -4 5 -11 -4 -19 -12 -11 -14 -9 -14 11 0 13 3 27 7 30 10 11 15 8 7 -4z
m291 1 c-3 -5 -11 -10 -16 -10 -6 0 -7 5 -4 10 3 6 11 10 16 10 6 0 7 -4 4
-10z m505 -11 c0 -11 -4 -17 -10 -14 -5 3 -10 13 -10 21 0 8 5 14 10 14 6 0
10 -9 10 -21z m-482 -1 c-5 -15 27 -50 37 -40 3 4 3 -1 -1 -11 -3 -9 -2 -17 3
-17 5 0 9 -10 10 -22 2 -22 1 -22 -13 2 l-15 25 5 -27 c4 -15 2 -30 -4 -33 -6
-4 -7 1 -3 11 4 10 2 15 -3 11 -5 -3 -9 11 -9 33 l1 38 -38 -3 c-21 -2 -36 0
-33 5 3 4 -1 11 -7 14 -7 3 -1 4 14 1 17 -3 32 0 40 10 16 18 21 19 16 3z
m142 -14 c0 -8 -4 -12 -10 -9 -5 3 -10 10 -10 16 0 5 5 9 10 9 6 0 10 -7 10
-16z m113 -1 c-5 -13 -2 -15 11 -10 11 5 15 3 10 -5 -5 -8 -2 -9 11 -4 15 5
16 4 6 -8 -20 -24 -62 8 -45 35 9 15 14 10 7 -8z m-598 -20 c-1 -16 -3 -32 -3
-36 -3 -14 -22 3 -22 19 0 9 5 12 12 8 7 -5 9 -2 5 8 -5 13 0 28 8 28 1 0 1
-12 0 -27z m81 12 c-11 -8 -14 -15 -7 -15 7 0 9 -4 6 -10 -3 -5 1 -10 9 -10 9
0 16 -5 16 -10 0 -7 -6 -7 -19 0 -27 14 -51 13 -31 -1 12 -8 10 -9 -9 -4 -16
5 -21 4 -17 -4 5 -7 1 -8 -10 -4 -16 6 -15 7 2 20 10 7 24 13 33 13 8 0 11 3
8 7 -9 8 12 33 27 33 6 0 2 -7 -8 -15z m117 -8 c4 3 7 -3 7 -15 0 -29 -4 -28
-26 6 -13 19 -13 24 -2 15 8 -7 18 -10 21 -6z m287 -33 c0 -8 -4 -12 -10 -9
-5 3 -10 13 -10 21 0 8 5 12 10 9 6 -3 10 -13 10 -21z m325 -5 c-4 -5 5 -13
19 -19 14 -5 26 -14 26 -20 0 -6 -18 1 -39 17 -24 17 -35 31 -28 35 14 8 29 0
22 -13z m85 6 c19 -23 8 -25 -14 -4 -11 11 -15 19 -9 19 6 0 16 -7 23 -15z
m-325 -1 c13 -5 14 -8 3 -15 -21 -14 -38 -10 -32 6 7 17 7 17 29 9z m111 -20
c1 -9 0 -13 -4 -10 -3 4 -7 14 -8 22 -1 9 0 13 4 10 3 -4 7 -14 8 -22z m34 -9
c7 -9 8 -15 2 -15 -5 0 -12 7 -16 15 -3 8 -4 15 -2 15 2 0 9 -7 16 -15z m160
5 c0 -5 -2 -10 -4 -10 -3 0 -8 5 -11 10 -3 6 -1 10 4 10 6 0 11 -4 11 -10z
m-710 -117 l256 -98 -2 -45 c-1 -25 -4 -92 -7 -150 -3 -67 -2 -94 4 -75 6 23
7 19 2 -15 -4 -25 -7 -60 -7 -78 0 -18 -3 -28 -6 -21 -7 10 -17 -181 -25 -436
-2 -55 -6 -123 -9 -150 -4 -35 -3 -44 3 -30 7 14 10 16 10 5 1 -9 -4 -21 -10
-27 -7 -7 -12 -60 -13 -145 0 -73 -3 -135 -7 -138 -4 -3 -9 -84 -13 -180 -3
-96 -8 -191 -12 -212 -6 -32 -10 -37 -40 -40 -19 -2 -37 -2 -39 1 -3 2 -5 143
-5 313 l0 309 -127 -3 -128 -3 -5 -310 c-4 -239 -8 -310 -17 -309 -7 1 -51 2
-97 3 -84 1 -84 1 -105 34 -44 71 -162 103 -238 64 -30 -16 -77 -64 -85 -88
-3 -8 -39 -12 -118 -11 l-115 0 -12 35 c-6 19 -15 51 -18 71 l-7 36 376 0 376
0 0 620 c0 674 1 663 -55 688 -17 8 -93 12 -232 12 -191 0 -204 1 -192 17 13
15 11 16 -14 9 -19 -4 -26 -3 -22 4 3 5 18 10 33 10 30 0 82 45 82 71 0 19 24
42 33 32 8 -7 45 38 42 52 -1 5 0 7 2 3 7 -13 24 -9 22 5 -3 25 3 82 7 70 3
-7 12 -9 20 -6 8 3 14 0 14 -6 0 -6 -4 -11 -10 -11 -5 0 -15 -10 -21 -22 -10
-19 -7 -18 20 7 17 16 29 35 27 42 -3 7 1 10 8 7 17 -6 40 22 30 37 -4 8 -3 9
5 5 15 -10 43 13 37 30 -3 7 2 15 10 18 10 4 12 2 8 -6 -4 -7 -3 -8 5 -4 7 4
9 17 6 29 -4 13 -3 17 2 10 6 -8 13 -9 23 -2 11 8 12 12 2 16 -6 2 -9 9 -6 15
4 6 10 5 15 -3 8 -12 11 -12 18 1 5 8 7 18 5 22 -3 4 2 5 10 2 11 -4 14 0 11
15 -3 17 -1 19 18 11 12 -5 137 -53 277 -107z m-73 111 c-3 -3 -12 -4 -19 -1
-8 3 -5 6 6 6 11 1 17 -2 13 -5z m403 -31 c-11 -17 -11 -17 -6 0 3 10 6 24 7
30 0 9 2 9 5 0 3 -7 0 -20 -6 -30z m160 16 c11 -6 7 -8 -13 -9 -16 0 -35 7
-44 15 -14 14 -13 15 13 9 16 -4 36 -10 44 -15z m-356 -6 c-20 -15 -36 -13
-42 5 -2 8 7 12 28 10 28 -2 30 -4 14 -15z m647 -8 l41 2 -21 -20 c-16 -17
-23 -19 -33 -9 -7 7 -17 12 -22 12 -6 0 7 -17 29 -36 22 -20 31 -31 20 -25
-36 20 -56 39 -60 58 -1 10 -8 17 -14 16 -12 -3 -15 10 -4 21 4 3 10 0 15 -7
5 -10 22 -14 49 -12z m-706 5 c-3 -5 2 -10 12 -10 15 0 16 -2 3 -10 -20 -13
-33 -13 -25 0 3 6 -4 10 -17 11 -23 1 -23 1 2 9 14 4 26 8 28 9 2 1 0 -3 -3
-9z m-45 -32 c0 -5 -11 -1 -25 8 -14 9 -25 18 -25 20 0 2 11 -2 25 -8 14 -6
25 -15 25 -20z m115 12 c-16 -17 -16 -20 -2 -20 9 0 19 5 22 10 10 17 25 11
25 -9 0 -25 -18 -37 -33 -22 -16 16 -30 14 -23 -4 5 -13 2 -13 -19 1 -28 18
-32 26 -10 18 10 -4 13 -2 10 8 -4 9 3 19 17 26 32 15 33 15 13 -8z m85 -20
c0 -16 -4 -30 -10 -30 -5 0 -10 14 -10 30 0 17 5 30 10 30 6 0 10 -13 10 -30z
m382 3 c7 -10 20 -19 28 -21 8 -2 20 -8 25 -14 7 -7 3 -7 -11 0 -15 8 -24 8
-32 0 -15 -15 -34 2 -39 32 -4 25 11 26 29 3z m202 -8 c-4 -8 -11 -12 -16 -9
-6 4 -5 10 3 15 19 12 19 11 13 -6z m-475 -55 c0 -10 -3 -8 -9 5 -12 27 -12
43 0 25 5 -8 9 -22 9 -30z m531 16 c0 -2 -7 -7 -16 -10 -8 -3 -12 -2 -9 4 6
10 25 14 25 6z m-660 -16 c0 -5 -2 -10 -4 -10 -3 0 -8 5 -11 10 -3 6 -1 10 4
10 6 0 11 -4 11 -10z m501 -7 c13 -15 12 -15 -8 -4 -24 12 -29 21 -14 21 5 0
15 -7 22 -17z m166 -15 c3 6 10 12 16 12 6 0 4 -8 -6 -17 -16 -16 -18 -16 -34
2 -17 18 -17 18 1 4 15 -11 20 -11 23 -1z m-559 -23 c-1 -14 -6 -25 -10 -25
-10 0 -10 13 -2 34 9 23 14 19 12 -9z m377 15 c3 -6 -1 -7 -9 -4 -18 7 -21 14
-7 14 6 0 13 -4 16 -10z m60 -10 c-3 -5 -12 -10 -18 -10 -7 0 -6 4 3 10 19 12
23 12 15 0z m-141 -12 c-3 -4 -9 -8 -15 -8 -5 0 -9 4 -9 8 0 5 7 9 15 9 8 0
12 -4 9 -9z m161 -8 c-3 -5 -11 -10 -16 -10 -6 0 -7 5 -4 10 3 6 11 10 16 10
6 0 7 -4 4 -10z m-1325 -4 c0 -3 -4 -8 -10 -11 -5 -3 -10 -1 -10 4 0 6 5 11
10 11 6 0 10 -2 10 -4z m1498 -6 c-2 -19 4 -21 15 -5 10 12 16 15 21 6 4 -6 0
-14 -9 -17 -13 -5 -13 -9 -3 -23 7 -9 -1 -5 -17 9 -17 14 -33 27 -37 30 -4 3
1 6 11 6 11 0 19 -3 19 -6z m116 -6 c3 -8 2 -12 -4 -9 -6 3 -10 10 -10 16 0
14 7 11 14 -7z m-782 -16 c-7 -7 -12 -8 -12 -2 0 14 12 26 19 19 2 -3 -1 -11
-7 -17z m55 0 c-3 -8 -6 -5 -6 6 -1 11 2 17 5 13 3 -3 4 -12 1 -19z m468 12
c3 -5 2 -10 -4 -10 -5 0 -13 5 -16 10 -3 6 -2 10 4 10 5 0 13 -4 16 -10z
m-489 -27 c-10 -10 -19 5 -10 18 6 11 8 11 12 0 2 -7 1 -15 -2 -18z m474 -3
c0 -5 -4 -10 -10 -10 -5 0 -10 5 -10 10 0 6 5 10 10 10 6 0 10 -4 10 -10z
m-24 -27 c-7 -7 -26 7 -26 19 0 6 6 6 15 -2 9 -7 13 -15 11 -17z m105 10 c13
-16 12 -17 -3 -4 -10 7 -18 15 -18 17 0 8 8 3 21 -13z m-571 -3 c0 -13 -11
-13 -30 0 -12 8 -11 10 8 10 12 0 22 -4 22 -10z m806 -5 c-3 -8 0 -15 7 -15 8
0 7 -4 -3 -11 -12 -9 -10 -10 9 -5 14 3 20 1 15 -4 -5 -5 -22 -11 -39 -14 -24
-5 -26 -4 -10 3 l20 10 -20 1 -20 1 20 9 c11 5 14 9 6 9 -11 1 -11 4 -1 16 7
8 15 15 17 15 3 0 3 -7 -1 -15z m-63 -12 c-7 -3 -13 -9 -13 -14 0 -4 7 -6 15
-3 8 4 15 4 15 1 0 -15 -29 -13 -42 3 -15 16 -14 17 11 17 14 0 20 -2 14 -4z
m-106 -30 c10 -10 14 -15 9 -10 -18 13 -29 7 -16 -8 11 -13 10 -14 -5 -9 -14
6 -16 4 -10 -7 4 -8 4 -11 0 -7 -11 11 -16 58 -5 58 4 0 16 -8 27 -17z m-1517
3 c0 -2 -8 -10 -17 -17 -16 -13 -17 -12 -4 4 13 16 21 21 21 13z m-91 -65
c-13 -11 -26 -17 -29 -14 -6 6 30 33 43 33 5 0 -1 -9 -14 -19z m1834 2 c-3 -7
-6 -13 -8 -13 -2 0 -5 6 -8 13 -3 8 1 14 8 14 7 0 11 -6 8 -14z m25 -13 c-7
-22 -7 -34 2 -45 9 -11 8 -21 -6 -45 -10 -16 -22 -30 -27 -30 -5 0 -2 12 8 26
10 16 14 35 11 49 -3 13 -2 35 4 49 13 36 21 32 8 -4z m112 -1 c0 -11 -4 -17
-10 -14 -5 3 -10 15 -10 26 0 11 5 17 10 14 6 -3 10 -15 10 -26z m-295 -9 c1
-11 -2 -20 -6 -20 -10 0 -20 30 -13 42 8 13 17 2 19 -22z m208 -30 c6 -44 6
-44 -7 -15 -7 17 -11 38 -8 48 6 24 8 20 15 -33z m-1863 37 c0 -2 -12 -14 -27
-28 -24 -22 -23 -11 2 18 9 11 25 17 25 10z m1655 -55 c-3 -3 -11 0 -18 7 -9
10 -8 11 6 5 10 -3 15 -9 12 -12z m-3080 0 l-20 -5 20 -8 c13 -5 5 -6 -20 -2
-38 6 -39 5 -25 -12 13 -16 13 -18 0 -13 -8 2 -15 13 -16 24 -1 16 6 19 40 20
23 1 32 -1 21 -4z m1320 -2 c-3 -5 -12 -10 -18 -10 -7 0 -6 4 3 10 19 12 23
12 15 0z m42 4 c-3 -3 -12 -4 -19 -1 -8 3 -5 6 6 6 11 1 17 -2 13 -5z m1864
-30 c-12 -9 -19 -20 -16 -25 3 -5 -1 -6 -10 -3 -12 5 -10 11 12 33 16 14 30
22 32 18 2 -5 -6 -15 -18 -23z m-3143 9 c-10 -2 -28 -2 -40 0 -13 2 -5 4 17 4
22 1 32 -1 23 -4z m3031 -27 c0 -7 -2 -6 -6 2 -7 19 -26 14 -19 -5 5 -15 4
-15 -9 1 -11 15 -12 22 -3 27 14 9 38 -8 37 -25z m-39 -31 c0 -5 -5 -3 -10 5
-5 8 -10 20 -10 25 0 6 5 3 10 -5 5 -8 10 -19 10 -25z m-3130 0 c-22 -24 -40
-25 -40 -3 0 5 7 7 15 4 9 -3 18 1 21 9 4 8 11 15 17 15 6 0 0 -11 -13 -25z
m3247 -7 c-3 -8 -6 -5 -6 6 -1 11 2 17 5 13 3 -3 4 -12 1 -19z m-3297 -16 c0
-15 -2 -15 -10 -2 -13 20 -13 33 0 25 6 -3 10 -14 10 -23z m-26 -53 c-7 -14
-9 -7 -10 28 -1 43 0 45 9 20 5 -17 6 -37 1 -48z m3216 5 c-4 -16 -9 -27 -10
-24 -7 22 -8 48 -3 64 4 16 7 17 14 4 4 -8 4 -28 -1 -44z m87 34 c-3 -8 -6 -5
-6 6 -1 11 2 17 5 13 3 -3 4 -12 1 -19z m-1405 -5 c17 -15 18 -45 18 -525 l0
-508 -680 0 -680 0 0 79 c0 44 5 83 10 86 6 3 10 11 10 16 0 6 -4 8 -10 4 -5
-3 -3 7 5 22 8 15 14 47 13 70 0 24 2 47 6 50 4 4 6 -6 4 -23 -1 -16 1 -35 5
-41 5 -7 1 -26 -8 -43 -8 -16 -13 -30 -11 -30 13 0 65 63 60 72 -4 6 -10 5
-15 -3 -5 -8 -9 -9 -9 -4 0 6 4 16 9 23 7 11 9 11 14 -2 11 -27 28 -18 22 12
-3 18 -3 21 3 9 6 -15 14 -11 54 30 52 53 66 95 33 101 -17 4 -18 2 -6 -12 10
-12 11 -16 1 -16 -10 0 -10 -3 0 -15 8 -9 8 -15 2 -15 -6 0 -12 6 -15 13 -2 6
-8 8 -13 4 -5 -4 -2 -12 6 -18 23 -14 -8 -31 -32 -18 -12 6 -18 6 -18 -1 0 -5
-9 -10 -21 -10 -19 0 -19 1 -4 16 13 13 21 14 41 6 23 -11 35 0 14 13 -12 7
-14 26 -2 24 18 -3 32 2 32 12 0 6 -7 8 -16 5 -14 -5 -15 -4 -4 9 26 32 83 7
63 -28 -3 -7 11 5 31 25 24 23 35 41 30 49 -5 8 -2 11 7 7 8 -3 20 0 26 7 10
10 9 14 -3 19 -9 4 -12 2 -8 -5 5 -9 -29 4 -44 16 -2 2 16 2 39 0 39 -3 47 1
81 38 29 33 35 44 27 59 -15 27 -20 86 -9 93 6 3 10 -1 10 -10 0 -8 11 -20 25
-25 14 -5 25 -12 25 -14 0 -3 -6 -3 -13 0 -21 8 -43 -24 -28 -39 9 -9 46 23
162 141 83 83 148 156 144 161 -3 5 0 13 6 17 8 5 10 2 5 -7 -4 -8 4 -2 17 13
14 15 27 25 28 23 2 -2 12 7 21 20 16 21 16 26 3 38 -12 13 -11 15 12 15 18 0
21 -3 12 -9 -8 -5 -9 -9 -3 -9 6 0 17 7 24 15 10 13 50 15 243 15 200 0 233
-2 249 -17z m628 -14 c0 -11 -4 -17 -10 -14 -5 3 -10 15 -10 26 0 11 5 17 10
14 6 -3 10 -15 10 -26z m-1824 -2 l559 -2 -572 -2 c-514 -2 -572 -1 -566 13 4
10 8 12 12 5 5 -7 181 -12 567 -14z m281 16 c-152 -2 -402 -2 -555 0 -152 1
-27 2 278 2 305 0 430 -1 277 -2z m350 1 c-3 -3 -12 -4 -19 -1 -8 3 -5 6 6 6
11 1 17 -2 13 -5z m2009 -61 c1 -42 -1 -52 -8 -39 -5 10 -7 33 -3 53 4 24 3
33 -4 28 -12 -7 -15 8 -4 18 12 13 17 -4 19 -60z m-2018 40 c-26 -7 -22 -20 5
-18 12 2 21 8 19 14 -1 7 3 9 9 6 19 -13 -8 -28 -52 -30 -30 -2 -37 0 -25 7 9
5 14 13 11 19 -4 5 6 8 22 8 17 -1 21 -3 11 -6z m1989 -29 c3 -18 2 -18 -6 1
-8 19 -9 18 -20 -7 -11 -29 -24 -39 -16 -13 3 8 7 22 10 31 7 21 29 13 32 -12z
m-3300 -316 c-1 -62 -3 -14 -3 107 0 121 2 172 3 113 2 -59 2 -158 0 -220z
m1297 293 c3 -5 -6 -8 -20 -8 -19 0 -22 2 -13 8 18 11 26 11 33 0z m1216 -17
c0 -8 -7 -14 -15 -14 -17 0 -18 2 -9 24 7 18 24 12 24 -10z m-2380 9 c0 -5 -5
-15 -10 -23 -8 -12 -10 -11 -10 8 0 12 5 22 10 22 6 0 10 -3 10 -7z m2314 -37
c-3 -21 -8 -35 -11 -32 -2 2 -1 20 3 40 3 21 8 35 11 32 2 -2 1 -20 -3 -40z
m840 20 c-3 -9 -10 -16 -15 -16 -6 0 -5 9 1 21 13 24 24 20 14 -5z m-2088 -38
c-27 -38 -17 -45 13 -11 15 18 31 30 34 26 4 -3 -5 -14 -18 -25 -14 -11 -25
-25 -25 -33 0 -7 -17 -27 -39 -44 -34 -27 -40 -29 -51 -16 -7 9 -10 18 -6 22
3 3 6 1 6 -5 0 -7 5 -12 11 -12 6 0 8 7 5 16 -4 11 -2 15 8 11 9 -4 20 7 31
31 18 38 34 62 42 62 2 0 -3 -10 -11 -22z m1919 -8 c-3 -5 -10 -10 -16 -10 -5
0 -9 5 -9 10 0 6 7 10 16 10 8 0 12 -4 9 -10z m45 -8 c0 -4 -5 -13 -11 -19 -6
-6 -11 -31 -12 -56 -1 -27 -5 -41 -10 -34 -5 7 -6 -8 -3 -33 5 -45 5 -45 -9
-15 -16 34 -20 19 -5 -20 5 -14 6 -24 1 -21 -18 11 -22 57 -6 79 8 12 15 31
14 42 0 20 0 20 -9 0 -5 -11 -9 -15 -9 -8 -1 18 39 93 50 93 5 0 9 -4 9 -8z
m-715 -81 c0 -32 -3 -55 -6 -49 -4 5 -5 -34 -3 -89 2 -54 1 -90 -2 -80 -3 9
-10 14 -16 11 -7 -5 -8 -2 -3 6 4 7 9 60 11 117 3 90 9 143 18 143 1 0 2 -27
1 -59z m801 2 c2 -24 0 -33 -5 -24 -7 11 -9 11 -13 0 -4 -11 -3 42 1 70 3 17
14 -15 17 -46z m-181 -9 c0 -15 -5 -29 -11 -31 -14 -5 -24 30 -17 57 8 29 29
9 28 -26z m-1956 -40 c-6 -8 -15 -11 -20 -8 -5 3 -9 0 -9 -6 0 -8 -6 -8 -21 0
-11 7 -27 9 -34 6 -8 -3 -17 -1 -20 3 -2 5 18 7 45 6 47 -2 50 -1 44 19 -6 18
-5 19 10 7 12 -10 14 -17 5 -27z m2109 -125 c-7 -16 -16 -29 -20 -29 -11 0
-10 4 7 36 8 16 16 52 17 79 l2 50 3 -53 c2 -30 -2 -66 -9 -83z m-2178 101 c0
-5 -5 -10 -11 -10 -5 0 -7 5 -4 10 3 6 8 10 11 10 2 0 4 -4 4 -10z m2164 -27
c-9 -50 -24 -79 -19 -36 4 38 14 73 21 73 3 0 2 -17 -2 -37z m-2224 23 c0 -3
-4 -8 -10 -11 -5 -3 -10 -1 -10 4 0 6 5 11 10 11 6 0 10 -2 10 -4z m2267 -58
c-3 -8 -6 -5 -6 6 -1 11 2 17 5 13 3 -3 4 -12 1 -19z m-134 -13 c-3 -9 -8 -14
-10 -11 -3 3 -2 9 2 15 9 16 15 13 8 -4z m217 -30 c0 -14 -4 -25 -10 -25 -11
0 -14 33 -3 43 11 11 13 8 13 -18z m-2340 11 c0 -3 -4 -8 -10 -11 -5 -3 -10
-1 -10 4 0 6 5 11 10 11 6 0 10 -2 10 -4z m2060 -11 c0 -8 -4 -15 -10 -15 -5
0 -7 7 -4 15 4 8 8 15 10 15 2 0 4 -7 4 -15z m215 -4 c3 -5 2 -12 -3 -15 -5
-3 -9 1 -9 9 0 17 3 19 12 6z m-2341 -52 c-15 -16 -30 -26 -33 -23 -3 4 0 9 7
11 6 3 12 9 12 15 0 6 -6 8 -14 5 -8 -3 -17 -1 -19 6 -2 7 -8 9 -12 5 -4 -4 0
-21 8 -37 17 -33 16 -34 -6 -25 -9 3 -13 13 -9 26 4 18 2 20 -13 14 -18 -7
-18 -6 -1 13 15 16 41 21 74 12 8 -3 17 5 14 12 -1 5 2 5 9 2 7 -5 1 -17 -17
-36z m-807 -16 c-3 -10 -5 -2 -5 17 0 19 2 27 5 18 2 -10 2 -26 0 -35z m2929
25 c5 4 0 -3 -10 -16 -11 -12 -22 -20 -25 -17 -3 4 1 10 8 14 9 6 10 11 2 15
-6 4 -11 13 -11 19 0 7 6 4 14 -5 7 -10 17 -14 22 -10z m-629 -45 c-3 -10 -5
-4 -5 12 0 17 2 24 5 18 2 -7 2 -21 0 -30z m663 12 c-6 -8 -8 -20 -4 -27 4 -7
3 -9 -1 -5 -5 4 -15 -3 -22 -15 -13 -22 -13 -22 -7 7 8 34 22 55 36 55 6 0 5
-6 -2 -15z m82 -12 c-5 -10 -7 -25 -5 -33 4 -13 3 -13 -5 -1 -10 13 5 67 15
57 3 -2 0 -13 -5 -23z m-2902 -46 l115 -3 -122 -2 c-93 -1 -123 1 -123 11 0 9
-3 8 -9 -2 -11 -17 -31 -6 -30 17 0 11 3 12 6 5 7 -20 26 -15 19 5 -4 12 -1
10 11 -5 16 -21 28 -23 133 -26z m266 7 c0 -16 -5 -20 -19 -16 -13 3 -15 7 -7
12 9 6 9 9 0 15 -8 5 -16 1 -22 -9 -5 -9 -13 -16 -18 -16 -6 0 -3 8 6 19 22
26 60 23 60 -5z m-531 -3 c-7 -12 -488 -15 -517 -3 -10 4 99 6 242 5 174 -2
261 1 265 8 4 6 9 8 12 5 3 -2 2 -9 -2 -15z m-547 -7 c4 -4 -3 -4 -15 -1 -24
5 -32 -8 -10 -16 13 -6 -61 2 -80 9 -7 2 -13 9 -13 15 0 12 106 7 118 -7z
m577 6 c3 -5 1 -10 -4 -10 -6 0 -11 5 -11 10 0 6 2 10 4 10 3 0 8 -4 11 -10z
m3121 -72 c1 -47 -1 -55 -6 -33 -11 42 -12 95 -2 95 4 0 8 -28 8 -62z m-2341
33 c-3 -6 -11 -11 -17 -11 -6 0 -6 6 2 15 14 17 26 13 15 -4z m-275 -6 c0 -8
-2 -15 -4 -15 -2 0 -6 7 -10 15 -3 8 -1 15 4 15 6 0 10 -7 10 -15z m2520 -15
c-7 -5 -10 -17 -5 -31 5 -20 4 -21 -5 -9 -10 12 -11 11 -7 -8 3 -12 1 -20 -4
-16 -5 3 -9 -2 -9 -11 0 -9 4 -13 10 -10 6 4 7 -1 3 -11 -5 -15 -7 -15 -15 0
-10 18 -5 41 20 95 9 19 18 29 20 22 3 -8 -1 -17 -8 -21z m118 -5 c-3 -3 -9 2
-12 12 -6 14 -5 15 5 6 7 -7 10 -15 7 -18z m-3793 4 c-4 -6 -8 -149 -8 -317
l-1 -307 -3 289 c-3 227 -6 286 -16 278 -9 -8 -12 -4 -13 14 -1 13 2 22 6 19
5 -3 11 4 15 15 3 11 11 20 16 20 6 0 7 -5 4 -11z m1176 -16 c-8 -15 -10 -15
-11 -2 0 17 10 32 18 25 2 -3 -1 -13 -7 -23z m1876 -10 c-3 -10 -5 -4 -5 12 0
17 2 24 5 18 2 -7 2 -21 0 -30z m-1835 -18 c-6 -34 -12 -32 -12 6 0 16 4 28 9
25 4 -3 6 -17 3 -31z m-1127 15 c-3 -5 1 -10 9 -10 9 0 15 -3 15 -7 -6 -39 1
-46 43 -40 28 4 37 2 27 -4 -12 -8 -12 -10 1 -19 9 -6 10 -10 3 -10 -6 0 -15
5 -18 10 -3 6 -17 10 -30 10 -14 0 -29 9 -35 20 -6 11 -15 18 -21 15 -10 -7
-13 28 -2 38 10 10 15 8 8 -3z m468 3 c-78 -2 -208 -2 -290 0 -81 1 -17 3 142
3 160 0 226 -2 148 -3z m474 1 c-3 -3 -12 -4 -19 -1 -8 3 -5 6 6 6 11 1 17 -2
13 -5z m63 -14 c-8 -5 -9 -10 -2 -14 6 -4 9 -13 6 -21 -9 -24 -24 -6 -22 25 1
19 6 26 16 23 10 -4 11 -8 2 -13z m150 5 c0 -8 -4 -15 -10 -15 -5 0 -7 7 -4
15 4 8 8 15 10 15 2 0 4 -7 4 -15z m-53 -27 c-3 -7 -5 -2 -5 12 0 14 2 19 5
13 2 -7 2 -19 0 -25z m2552 -27 c-6 -17 -15 -31 -20 -31 -6 0 -5 9 1 20 6 11
8 26 4 32 -5 7 -3 8 6 3 9 -5 10 -1 6 16 -6 19 -5 21 3 8 8 -12 7 -26 0 -48z
m47 -37 c-4 -13 -12 -24 -18 -24 -9 0 -9 3 0 12 7 7 13 32 14 58 1 38 2 40 5
11 3 -19 2 -44 -1 -57z m-3639 50 c-3 -3 -12 -4 -19 -1 -8 3 -5 6 6 6 11 1 17
-2 13 -5z m2940 -31 c-3 -10 -5 -4 -5 12 0 17 2 24 5 18 2 -7 2 -21 0 -30z
m-2367 22 c0 -12 -73 -36 -102 -32 l-33 4 38 1 c21 1 45 9 53 17 14 14 44 21
44 10z m3050 -4 c0 -6 -4 -13 -10 -16 -5 -3 -10 1 -10 9 0 9 5 16 10 16 6 0
10 -4 10 -9z m-3020 -10 c0 -10 -24 -21 -43 -21 -7 0 -3 7 7 15 22 17 36 19
36 6z m-630 -21 c-10 -6 88 -9 280 -9 162 0 303 -3 312 -6 27 -11 30 -32 30
-216 0 -186 -5 -215 -45 -224 -36 -8 -586 -11 -574 -3 7 5 3 8 -10 8 -13 0
-23 6 -24 15 -3 92 1 388 7 413 4 20 12 32 23 32 14 0 14 -2 1 -10z m2917 -57
c-2 -16 -4 -5 -4 22 0 28 2 40 4 28 2 -13 2 -35 0 -50z m-2287 47 c0 -5 -2
-10 -4 -10 -3 0 -8 5 -11 10 -3 6 -1 10 4 10 6 0 11 -4 11 -10z m-673 -32 c-3
-7 -5 -2 -5 12 0 14 2 19 5 13 2 -7 2 -19 0 -25z m3643 22 c0 -5 -5 -10 -11
-10 -5 0 -7 5 -4 10 3 6 8 10 11 10 2 0 4 -4 4 -10z m-654 -78 c0 -49 -2 -59
-7 -37 -6 25 -7 23 -6 -17 0 -26 -2 -50 -6 -54 -4 -4 -7 11 -7 34 0 22 -3 48
-7 58 -4 12 -3 15 5 10 8 -5 12 5 12 33 0 23 3 41 8 41 4 0 7 -30 8 -68z
m-2988 -127 c0 -66 -2 -128 -6 -137 -4 -9 -7 55 -7 143 0 88 3 150 7 137 3
-13 6 -77 6 -143z m3502 138 c-1 -16 -7 -41 -15 -58 -12 -24 -13 -25 -8 -5 4
14 7 40 7 58 -1 17 3 32 8 32 4 0 8 -12 8 -27z m21 -39 c-16 -35 -18 -50 -10
-60 7 -9 8 -14 1 -14 -6 0 -12 6 -15 13 -9 23 -27 -43 -20 -75 4 -22 3 -29 -5
-24 -17 10 -15 81 3 96 8 7 15 16 15 20 0 17 41 103 46 97 3 -3 -4 -27 -15
-53z m106 19 c-3 -10 -5 -4 -5 12 0 17 2 24 5 18 2 -7 2 -21 0 -30z m-867
-183 l0 -190 -80 0 -80 0 0 190 0 190 80 0 80 0 0 -190z m687 138 c2 -27 -1
-38 -11 -38 -16 0 -24 24 -18 56 6 35 27 23 29 -18z m167 -28 l7 -25 -15 25
c-17 28 -21 50 -7 35 5 -6 12 -21 15 -35z m-2686 -24 c-7 -8 -15 -12 -17 -11
-5 6 10 25 20 25 5 0 4 -6 -3 -14z m42 4 c0 -5 -4 -10 -9 -10 -5 0 -16 -16
-25 -35 -9 -19 -29 -40 -44 -47 -15 -7 -33 -28 -41 -45 -14 -32 -31 -44 -31
-23 0 6 4 10 9 10 5 0 11 10 13 23 2 13 16 29 38 39 20 10 35 25 35 35 0 10 9
27 20 39 22 24 35 29 35 14z m40 -6 c0 -8 -19 -13 -24 -6 -3 5 1 9 9 9 8 0 15
-2 15 -3z m2392 -19 c-2 -14 -6 -25 -8 -25 -2 0 -4 11 -4 25 0 14 4 25 9 25 4
0 6 -11 3 -25z m-2375 -352 c-2 -2 -85 -2 -183 -1 l-179 3 132 134 c73 74 130
138 128 142 -3 4 2 12 10 19 8 7 15 18 15 25 0 14 29 29 38 20 3 -3 1 -5 -4
-5 -6 0 -21 -15 -33 -32 -18 -26 -12 -22 25 15 l49 47 3 -181 c1 -100 1 -184
-1 -186z m2466 347 c-3 -12 -8 -19 -11 -16 -5 6 5 36 12 36 2 0 2 -9 -1 -20z
m122 0 c9 -29 -12 -93 -35 -108 -17 -10 -20 -10 -20 3 0 8 6 15 13 15 7 0 18
15 25 33 15 41 15 57 2 57 -5 0 -10 -8 -10 -17 0 -10 -4 -24 -9 -31 -7 -11 -9
-10 -14 3 -5 10 -3 14 5 9 7 -5 9 1 6 19 -3 15 -1 24 3 21 5 -3 9 0 9 5 0 19
18 12 25 -9z m-2765 -4 c0 -3 -4 -8 -10 -11 -5 -3 -10 -1 -10 4 0 6 5 11 10
11 6 0 10 -2 10 -4z m-2 -50 c-7 -8 -15 -12 -17 -11 -5 6 10 25 20 25 5 0 4
-6 -3 -14z m13 -77 c-26 -27 -53 -49 -60 -49 -19 0 -13 7 24 29 20 11 39 29
42 38 9 24 26 42 35 36 5 -2 -14 -26 -41 -54z m2622 41 c-3 -11 -7 -20 -9 -20
-2 0 -4 9 -4 20 0 11 4 20 9 20 5 0 7 -9 4 -20z m167 -1 c0 -24 -23 -21 -28 4
-2 10 3 17 12 17 10 0 16 -9 16 -21z m-4360 -39 c0 -5 -7 -10 -15 -10 -8 0
-15 5 -15 10 0 6 7 10 15 10 8 0 15 -4 15 -10z m1511 0 c6 0 7 -5 3 -11 -4 -8
-9 -8 -17 0 -19 19 -27 12 -20 -19 3 -16 2 -30 -3 -30 -5 0 -8 14 -8 30 2 42
2 43 20 36 9 -3 20 -6 25 -6z m2669 1 c0 -12 -20 -25 -27 -18 -7 7 6 27 18 27
5 0 9 -4 9 -9z m-3779 -17 c13 -12 15 -22 9 -44 -4 -15 -4 -33 1 -39 6 -8 5
-8 -3 -1 -14 12 -15 15 -17 55 0 15 -7 25 -16 25 -8 0 -15 5 -15 10 0 15 21
12 41 -6z m2747 -46 l3 -58 -681 0 -680 0 0 53 c0 30 3 56 6 60 4 3 308 5 678
4 l671 -2 3 -57z m977 15 c0 -11 6 -27 13 -36 8 -9 12 -22 9 -29 -3 -8 -9 -3
-15 12 -6 14 -11 19 -11 12 -1 -7 6 -26 14 -42 10 -19 11 -31 5 -35 -6 -4 -10
-3 -9 2 1 4 -3 22 -10 38 -17 39 -21 107 -7 102 6 -2 11 -13 11 -24z m-3751
-4 c-3 -5 -10 -7 -15 -3 -5 3 -7 10 -3 15 3 5 10 7 15 3 5 -3 7 -10 3 -15z
m3796 6 c-6 -8 -9 -19 -5 -25 7 -11 -7 -14 -18 -4 -7 8 15 44 27 44 4 0 3 -7
-4 -15z m-4190 -19 c0 -3 -4 -8 -10 -11 -5 -3 -10 -1 -10 4 0 6 5 11 10 11 6
0 10 -2 10 -4z m132 -34 c-9 -7 -12 -11 -6 -8 7 3 17 -1 24 -9 10 -12 9 -16
-5 -21 -13 -6 -14 -9 -3 -16 10 -7 9 -8 -5 -4 -14 4 -17 0 -15 -24 2 -32 18
-43 45 -33 11 4 14 3 9 -6 -4 -7 -18 -11 -29 -9 -12 1 -26 0 -32 -4 -6 -4 -9
12 -7 43 2 27 9 49 15 49 7 0 7 4 -1 12 -14 14 -16 52 -2 43 6 -3 10 2 10 12
0 15 2 15 9 4 7 -10 4 -19 -7 -29z m1388 28 c0 -5 -7 -10 -16 -10 -8 0 -13 -4
-9 -9 3 -5 1 -12 -5 -16 -5 -3 -10 -4 -10 -1 0 2 -3 12 -7 22 -4 10 -2 15 3
11 6 -3 16 -2 24 4 19 11 20 11 20 -1z m2745 -33 c-5 -24 -4 -28 4 -17 6 8 11
10 11 5 0 -14 -29 -55 -39 -55 -4 0 -8 7 -8 15 0 9 6 14 12 11 8 -3 11 10 10
39 0 24 3 41 8 38 4 -3 5 -19 2 -36z m-2861 18 c-7 -17 11 -21 21 -5 3 6 11
10 17 10 6 0 -1 -9 -15 -20 -15 -12 -24 -27 -20 -35 7 -19 23 -19 23 0 0 8 2
15 4 15 2 0 13 3 23 7 17 7 17 6 1 -11 -10 -9 -22 -25 -28 -34 -9 -13 -12 -14
-17 -4 -3 7 -17 25 -31 39 -25 25 -25 25 -2 18 15 -5 20 -4 16 4 -4 6 -4 16
-1 21 9 15 15 12 9 -5z m-697 -17 c-3 -8 -6 -5 -6 6 -1 11 2 17 5 13 3 -3 4
-12 1 -19z m-417 -14 c0 -17 -16 -19 -26 -3 -5 8 -10 6 -16 -5 -5 -9 -17 -16
-26 -16 -13 0 -14 -2 -4 -9 17 -11 12 -43 -8 -49 -13 -5 -13 -3 -1 11 11 14
11 20 1 32 -10 12 -8 16 11 24 13 5 20 10 14 11 -5 0 1 7 15 14 27 16 40 12
40 -10z m227 4 c-3 -8 -6 -5 -6 6 -1 11 2 17 5 13 3 -3 4 -12 1 -19z m215 -13
c2 -19 0 -35 -4 -35 -4 0 -8 16 -8 35 0 19 2 35 4 35 2 0 6 -16 8 -35z m-702
-1 c0 -8 -5 -12 -10 -9 -6 4 -8 11 -5 16 9 14 15 11 15 -7z m450 0 c0 -17 -22
-14 -28 4 -2 7 3 12 12 12 9 0 16 -7 16 -16z m863 9 c-7 -2 -21 -2 -30 0 -10
3 -4 5 12 5 17 0 24 -2 18 -5z m-583 -13 c0 -5 -2 -10 -4 -10 -3 0 -8 5 -11
10 -3 6 -1 10 4 10 6 0 11 -4 11 -10z m68 3 c-10 -2 -28 -2 -40 0 -13 2 -5 4
17 4 22 1 32 -1 23 -4z m3305 -13 c3 -11 1 -18 -4 -14 -5 3 -9 12 -9 20 0 20
7 17 13 -6z m-2780 3 c-7 -2 -19 -2 -25 0 -7 3 -2 5 12 5 14 0 19 -2 13 -5z
m-1093 -13 c0 -5 -5 -10 -11 -10 -5 0 -7 5 -4 10 3 6 8 10 11 10 2 0 4 -4 4
-10z m563 3 c-7 -2 -19 -2 -25 0 -7 3 -2 5 12 5 14 0 19 -2 13 -5z m-356 -25
c-3 -8 -6 -5 -6 6 -1 11 2 17 5 13 3 -3 4 -12 1 -19z m27 7 c-4 -8 -8 -15 -10
-15 -2 0 -4 7 -4 15 0 8 4 15 10 15 5 0 7 -7 4 -15z m82 0 c14 -13 12 -15 -13
-16 -23 -2 -24 -2 -5 -6 12 -2 22 -9 22 -14 0 -15 -27 -10 -46 9 -16 16 -16
17 -1 20 10 2 15 8 12 13 -10 15 15 10 31 -6z m679 5 c3 -5 1 -10 -4 -10 -6 0
-11 5 -11 10 0 6 2 10 4 10 3 0 8 -4 11 -10z m2575 6 c0 -2 -7 -7 -16 -10 -8
-3 -12 -2 -9 4 6 10 25 14 25 6z m525 -6 c3 -5 1 -10 -4 -10 -6 0 -11 5 -11
10 0 6 2 10 4 10 3 0 8 -4 11 -10z m-4066 -27 c-3 -45 0 -65 11 -58 6 3 10 1
10 -4 0 -6 -4 -11 -10 -11 -5 0 -7 -6 -4 -14 3 -8 0 -17 -6 -21 -6 -4 -11 -1
-9 6 1 8 1 26 0 41 -1 22 -5 26 -18 21 -17 -6 -17 -6 0 11 11 11 15 26 12 37
-4 11 -2 19 5 19 6 0 10 -12 9 -27z m83 -15 c-6 -6 -7 0 -4 19 5 21 7 23 10 9
2 -10 0 -22 -6 -28z m536 35 c-27 -2 -69 -2 -95 0 -27 2 -5 3 47 3 52 0 74 -1
48 -3z m2931 -16 c-8 -7 -20 -12 -27 -9 -9 3 -6 8 10 16 28 15 35 12 17 -7z
m-3199 -12 c0 -8 -7 -11 -19 -8 -16 4 -17 8 -8 18 14 15 27 10 27 -10z m98 19
c12 -4 22 -10 22 -13 0 -13 -34 -8 -48 6 -15 14 -9 16 26 7z m1318 -16 c-4
-13 -12 -44 -18 -70 -6 -27 -14 -48 -17 -49 -3 0 -27 -1 -53 -2 l-47 -2 2 45
2 45 -57 3 c-54 3 -58 5 -58 27 l0 25 126 0 c126 0 126 0 120 -22z m369 -35
c9 -32 18 -66 21 -75 5 -17 -8 -18 -180 -18 -147 0 -186 3 -186 13 0 14 29
117 37 130 2 4 69 7 148 7 l144 0 16 -57z m1065 -18 l0 -76 -77 3 -78 3 -3 73
-3 72 81 0 80 0 0 -75z m840 65 c0 -5 -2 -10 -4 -10 -3 0 -8 5 -11 10 -3 6 -1
10 4 10 6 0 11 -4 11 -10z m-4080 -25 c-7 -8 -17 -15 -23 -15 -5 0 -2 9 8 20
21 23 35 19 15 -5z m830 12 c0 -9 -13 -11 -42 -9 -64 6 -71 22 -10 22 36 0 52
-4 52 -13z m3271 -49 c-2 -75 -11 -73 -11 2 0 35 3 60 7 57 3 -4 5 -30 4 -59z
m-3846 8 c-4 -20 -11 -34 -15 -31 -4 2 -2 20 4 39 13 44 19 39 11 -8z m693 37
c-21 -2 -55 -2 -75 0 -21 2 -4 4 37 4 41 0 58 -2 38 -4z m-727 -22 c5 8 9 9 9
3 0 -6 -9 -21 -20 -34 -16 -18 -23 -21 -32 -12 -9 9 -9 12 1 12 7 0 9 5 5 12
-4 7 -3 8 4 4 8 -5 12 1 13 16 1 19 2 20 6 4 4 -15 7 -16 14 -5z m3349 5 c0
-3 -4 -8 -10 -11 -5 -3 -10 -1 -10 4 0 6 5 11 10 11 6 0 10 -2 10 -4z m-824
-67 c13 -12 24 -26 24 -31 0 -4 -52 -8 -115 -8 -63 0 -115 4 -115 8 0 16 38
44 76 57 45 15 97 5 130 -26z m1231 9 c-3 -7 -5 -2 -5 12 0 14 2 19 5 13 2 -7
2 -19 0 -25z m-280 0 c-3 -8 -6 -5 -6 6 -1 11 2 17 5 13 3 -3 4 -12 1 -19z
m168 12 c-4 -6 5 -10 19 -10 14 0 26 5 26 10 0 6 8 10 18 10 10 0 19 -7 19
-15 0 -12 -20 -15 -119 -15 -98 0 -118 3 -118 15 0 12 16 15 81 15 51 0 78 -4
74 -10z m-3917 -24 c3 -12 -1 -17 -10 -14 -7 3 -15 13 -16 22 -3 12 1 17 10
14 7 -3 15 -13 16 -22z m222 4 c0 -5 -10 -14 -22 -20 -20 -9 -21 -9 -7 2 9 7
14 19 11 27 -3 8 0 11 7 7 6 -4 11 -11 11 -16z m3835 10 c3 -5 1 -10 -4 -10
-6 0 -11 5 -11 10 0 6 2 10 4 10 3 0 8 -4 11 -10z m181 -27 c-11 -11 -17 4 -9
23 7 18 8 18 11 1 2 -10 1 -21 -2 -24z m-4318 2 c-3 -3 -9 2 -12 12 -6 14 -5
15 5 6 7 -7 10 -15 7 -18z m138 -2 c-10 -10 -19 5 -10 18 6 11 8 11 12 0 2 -7
1 -15 -2 -18z m129 17 c-3 -5 -12 -10 -18 -10 -7 0 -6 4 3 10 19 12 23 12 15
0z m1485 3 c0 -3 -7 -15 -17 -25 -15 -17 -37 -18 -279 -18 -164 0 -265 4 -269
10 -4 6 13 10 44 10 39 0 51 4 51 15 0 13 33 15 235 15 129 0 235 -3 235 -7z
m-1395 -12 c3 -5 1 -12 -5 -16 -5 -3 -10 1 -10 9 0 18 6 21 15 7z m175 -7 c0
-2 -13 -4 -30 -4 -16 0 -30 4 -30 8 0 5 14 7 30 4 17 -2 30 -6 30 -8z m360 6
c0 -5 -15 -9 -32 -9 l-33 1 30 8 c17 4 31 8 33 9 1 0 2 -3 2 -9z m-566 -8 c3
-5 -1 -9 -9 -9 -8 0 -12 4 -9 9 3 4 7 8 9 8 2 0 6 -4 9 -8z m429 1 c-29 -2
-78 -2 -110 0 -32 2 -8 3 52 3 61 0 87 -1 58 -3z m3242 1 c-71 -8 -165 -8
-165 -1 0 4 44 6 98 5 53 0 84 -3 67 -4z m83 -1 c-10 -2 -26 -2 -35 0 -10 3
-2 5 17 5 19 0 27 -2 18 -5z m62 3 c0 -3 -4 -8 -10 -11 -5 -3 -10 -1 -10 4 0
6 5 11 10 11 6 0 10 -2 10 -4z m-4600 -20 c0 -3 -4 -8 -10 -11 -5 -3 -10 -1
-10 4 0 6 5 11 10 11 6 0 10 -2 10 -4z m4930 -12 c0 -8 -5 -12 -10 -9 -6 4 -8
11 -5 16 9 14 15 11 15 -7z m4 -40 c10 -26 7 -34 -11 -34 -16 0 -16 2 -3 11
11 8 12 12 3 16 -15 5 -17 23 -4 23 5 0 12 -7 15 -16z m1 -64 c-3 -5 -11 -10
-16 -10 -6 0 -7 5 -4 10 3 6 11 10 16 10 6 0 7 -4 4 -10z m-28 -42 c-3 -8 -6
-5 -6 6 -1 11 2 17 5 13 3 -3 4 -12 1 -19z m-4878 -15 c11 3 19 1 15 -4 -5 -9
-54 -13 -54 -5 0 2 -3 13 -6 23 -6 17 -6 17 8 -1 10 -13 22 -17 37 -13z m460
-16 c8 -11 6 -18 -11 -33 -14 -12 -18 -13 -10 -3 6 9 9 19 5 22 -3 4 -83 8
-177 9 l-171 2 175 6 c96 3 176 7 176 8 1 1 7 -4 13 -11z m4276 -1 c17 -2 -48
-3 -142 -2 -172 1 -173 1 -169 -21 4 -17 1 -20 -12 -16 -10 4 -12 8 -4 11 8 2
8 8 -3 18 -8 9 -20 12 -26 8 -7 -4 -10 -3 -7 2 6 8 291 8 363 0z m105 4 c-8
-5 -24 -9 -35 -9 -16 1 -16 2 5 9 35 11 48 11 30 0z m-4865 -20 c3 -5 2 -10
-4 -10 -5 0 -13 5 -16 10 -3 6 -2 10 4 10 5 0 13 -4 16 -10z m52 4 c-3 -3 -12
-4 -19 -1 -8 3 -5 6 6 6 11 1 17 -2 13 -5z m4843 2 c0 -3 -4 -8 -10 -11 -5 -3
-10 -1 -10 4 0 6 5 11 10 11 6 0 10 -2 10 -4z m-485 -16 c-3 -5 -12 -10 -18
-10 -7 0 -6 4 3 10 19 12 23 12 15 0z m438 3 c-7 -2 -19 -2 -25 0 -7 3 -2 5
12 5 14 0 19 -2 13 -5z m-4800 -10 c-7 -2 -19 -2 -25 0 -7 3 -2 5 12 5 14 0
19 -2 13 -5z m522 -35 c24 -18 44 -36 45 -41 0 -4 -23 11 -52 33 -28 23 -57
39 -65 36 -8 -4 -11 -1 -8 5 9 14 25 7 80 -33z m3799 15 c-7 -35 -54 -72 -54
-42 0 6 -8 8 -17 5 -11 -4 -8 2 7 13 14 11 27 17 30 15 2 -3 -2 -9 -10 -14
-13 -9 -13 -10 0 -10 8 0 21 9 28 20 10 16 10 20 0 20 -9 0 -8 3 2 10 8 5 16
10 17 10 1 0 -1 -12 -3 -27z m561 17 c-3 -5 -14 -10 -23 -9 -14 0 -13 2 3 9
27 11 27 11 20 0z m-4175 -40 c0 -5 12 -11 28 -13 27 -4 27 -4 -3 -6 -17 0
-37 5 -45 12 -8 6 -6 2 4 -10 11 -13 16 -23 13 -23 -6 0 -77 40 -77 43 0 1 18
3 40 4 22 0 40 -3 40 -7z m901 -4 c-7 -8 218 -11 792 -11 l802 0 -799 -5
c-787 -5 -799 -5 -807 -25 -7 -17 -8 -18 -10 -2 -1 9 -2 23 -3 30 -3 18 1 24
18 24 10 0 12 -4 7 -11z m72 7 c-7 -2 -19 -2 -25 0 -7 3 -2 5 12 5 14 0 19 -2
13 -5z m2370 -14 c27 -2 52 2 59 9 7 7 17 12 22 12 6 0 0 -8 -14 -17 -15 -11
-39 -16 -66 -14 -23 1 -45 -2 -49 -8 -3 -6 -18 -9 -33 -6 -15 3 -21 2 -14 -1
6 -3 10 -10 6 -15 -9 -15 -22 -10 -27 9 -4 14 -5 13 -6 -4 0 -11 -10 -29 -21
-39 -11 -10 -20 -23 -20 -28 0 -6 8 -3 18 6 21 19 42 22 42 6 0 -6 -7 -8 -16
-5 -11 4 -15 2 -11 -7 4 -10 -2 -13 -20 -11 -37 4 -53 -5 -53 -31 0 -13 -5
-27 -10 -30 -7 -4 -9 3 -5 22 6 27 6 28 -7 5 -8 -12 -17 -19 -21 -16 -9 10 -9
26 1 21 8 -4 43 29 36 35 -2 3 8 15 23 29 15 13 21 16 14 7 -7 -10 -9 -18 -3
-18 14 0 35 28 28 38 -3 5 8 21 25 36 29 26 31 27 44 9 8 -10 17 -14 22 -9 4
5 2 11 -5 13 -6 3 -9 9 -6 15 4 7 9 7 13 0 3 -6 27 -11 54 -13z m10 14 c-7 -2
-19 -2 -25 0 -7 3 -2 5 12 5 14 0 19 -2 13 -5z m-3518 -51 c-2 -3 -11 1 -19 7
-8 7 -19 10 -23 8 -5 -3 -9 3 -9 12 0 17 2 17 28 -2 15 -11 26 -23 23 -25z
m305 23 c13 -14 21 -25 18 -25 -2 0 -15 11 -28 25 -13 14 -21 25 -18 25 2 0
15 -11 28 -25z m-25 -5 c10 -11 13 -20 7 -20 -7 0 -12 4 -12 10 0 5 -7 7 -15
4 -8 -4 -12 -11 -8 -18 4 -6 8 -24 9 -41 2 -18 0 -24 -5 -16 -5 7 -11 12 -15
11 -4 0 -13 6 -21 14 -13 12 -12 15 1 20 13 5 14 9 4 21 -11 13 -8 15 16 15
22 0 26 3 14 10 -8 5 -10 10 -4 10 6 0 19 -9 29 -20z m3505 0 c0 -5 -5 -10
-11 -10 -5 0 -7 5 -4 10 3 6 8 10 11 10 2 0 4 -4 4 -10z m80 -5 c0 -8 -7 -15
-16 -15 -14 0 -14 3 -4 15 7 8 14 15 16 15 2 0 4 -7 4 -15z m-1588 -2 c-211
-2 -553 -2 -760 0 -207 1 -35 2 383 2 418 0 588 -1 377 -2z m-2167 -62 c9 -23
-5 -27 -37 -8 -16 9 -34 15 -39 12 -5 -4 -6 1 -3 9 8 20 10 20 36 -4 35 -32
44 -23 12 12 -29 31 -29 31 -2 12 15 -10 30 -25 33 -33z m3345 39 c0 -5 7 -10
16 -10 8 0 13 3 11 8 -3 4 7 8 21 9 24 1 24 0 7 -9 -11 -6 -30 -21 -43 -34
-13 -13 -28 -24 -35 -24 -7 0 -1 9 12 19 14 11 20 21 13 25 -6 3 -13 2 -17 -4
-3 -5 -10 -10 -16 -10 -5 0 -4 9 3 20 14 21 28 27 28 10z m161 -14 c-8 -10 -9
-15 -1 -18 13 -4 3 -38 -11 -38 -6 0 -8 10 -7 23 4 24 16 47 25 47 3 0 0 -6
-6 -14z m-3246 -16 c10 -11 16 -20 13 -20 -3 0 -13 9 -23 20 -10 11 -16 20
-13 20 3 0 13 -9 23 -20z m682 -12 c-3 -7 -5 -2 -5 12 0 14 2 19 5 13 2 -7 2
-19 0 -25z m1553 -4 c0 -8 -5 -12 -10 -9 -6 4 -8 11 -5 16 9 14 15 11 15 -7z
m976 -1 c-2 -9 -9 -19 -17 -21 -11 -3 -11 -1 1 7 8 6 11 11 7 11 -5 0 -5 5 -2
10 9 15 14 12 11 -7z m-3223 -23 c-19 -5 -22 -38 -8 -87 6 -19 4 -22 -14 -18
-13 2 -21 -1 -21 -10 0 -20 42 -14 48 7 4 16 15 22 35 19 4 0 7 4 7 9 0 6 7
10 16 10 9 0 14 -6 11 -12 -2 -7 -10 -12 -16 -10 -7 1 -11 -3 -10 -10 3 -26
-1 -39 -11 -33 -6 4 -8 16 -4 28 5 18 3 17 -16 -6 -17 -21 -20 -31 -11 -40 8
-8 11 -8 11 2 0 7 5 9 11 5 8 -4 8 -9 0 -17 -7 -7 -16 -5 -31 8 -22 20 -22 20
-38 -9 -6 -13 -7 -29 -1 -45 l9 -26 -19 25 c-15 19 -17 28 -8 39 10 12 9 14
-5 8 -24 -9 -30 6 -13 29 15 19 15 19 8 0 -4 -13 -3 -17 4 -13 6 4 14 1 17 -5
3 -7 4 -1 1 14 -6 33 3 60 19 51 7 -4 7 -2 -1 7 -8 9 -9 19 -2 31 7 14 5 21
-12 29 -16 9 -18 14 -9 26 7 7 16 12 20 9 5 -3 12 -1 15 5 5 8 12 7 22 -2 14
-11 14 -13 -4 -18z m-294 11 c10 -7 7 -9 -12 -8 -14 1 -23 5 -20 10 6 9 15 9
32 -2z m1041 -30 c-5 -10 -6 -21 -3 -25 3 -3 3 -6 -1 -6 -13 0 -24 45 -13 52
18 11 28 -2 17 -21z m-928 -1 c12 -10 25 -17 29 -14 18 11 31 -33 16 -54 -8
-10 -13 -9 -27 3 -10 9 -28 14 -41 12 -13 -2 -18 -2 -11 0 6 3 12 9 12 14 0
14 17 11 34 -7 12 -11 16 -12 16 -2 0 7 -14 25 -32 40 -18 15 -29 28 -25 28 4
0 17 -9 29 -20z m2444 5 c-8 -8 -20 -15 -27 -15 -7 0 -4 6 7 15 25 19 40 19
20 0z m1054 -11 c0 -18 -36 -18 -43 0 -6 16 10 26 31 18 6 -2 12 -10 12 -18z
m-3540 -8 c0 -8 -7 -19 -15 -26 -10 -9 -15 -9 -15 -1 0 6 -8 11 -17 11 -14 0
-15 2 -4 13 11 10 14 10 18 0 8 -22 21 -14 15 9 -3 14 -2 19 6 14 7 -4 12 -13
12 -20z m240 9 c0 -8 -4 -15 -10 -15 -5 0 -7 7 -4 15 4 8 8 15 10 15 2 0 4 -7
4 -15z m80 -30 c0 -5 -5 -3 -10 5 -5 8 -10 20 -10 25 0 6 5 3 10 -5 5 -8 10
-19 10 -25z m543 0 c17 -21 41 -38 65 -44 23 -6 330 -9 809 -8 764 2 772 2
800 23 15 11 32 30 38 42 12 26 -3 26 259 3 142 -13 212 -23 221 -32 6 -8 39
-62 73 -122 56 -99 61 -112 63 -175 1 -37 -1 -96 -5 -132 -4 -44 -3 -58 3 -45
8 17 10 17 10 3 1 -9 -3 -20 -9 -23 -5 -3 -10 -23 -10 -43 0 -25 3 -32 9 -23
6 9 9 5 9 -13 0 -21 -3 -24 -14 -15 -12 10 -14 -5 -15 -92 -3 -180 -5 -242
-13 -308 -6 -49 -5 -62 4 -56 9 6 9 3 2 -11 -7 -15 -20 -176 -25 -311 0 -10
-363 -13 -1779 -13 -978 0 -1778 2 -1778 5 0 5 485 848 616 1070 29 50 62 99
73 109 11 10 18 23 15 27 -3 5 0 9 7 9 7 0 51 41 99 90 l85 90 150 14 c221 20
206 21 238 -19z m154 29 c-3 -3 -12 -4 -19 -1 -8 3 -5 6 6 6 11 1 17 -2 13 -5z
m1503 2 c0 -2 -7 -7 -16 -10 -8 -3 -12 -2 -9 4 6 10 25 14 25 6z m875 -6 c3
-6 -1 -7 -10 -4 -11 5 -14 2 -9 -10 4 -10 12 -15 18 -13 7 3 13 -5 14 -16 1
-15 -2 -17 -7 -9 -4 7 -15 10 -23 7 -9 -4 -19 -2 -23 4 -4 7 1 9 12 5 16 -5
15 -3 -2 11 -17 14 -18 17 -5 25 19 12 27 12 35 0z m-58 -35 c0 -8 -4 -12 -9
-9 -5 3 -6 10 -3 15 9 13 12 11 12 -6z m-171 -7 c7 9 16 13 21 9 4 -5 1 -13
-8 -17 -10 -6 -15 -20 -14 -35 2 -14 -1 -23 -5 -20 -5 3 -6 13 -3 22 4 10 2
14 -4 10 -5 -4 -16 6 -22 21 -12 26 -12 26 5 10 16 -16 18 -16 30 0z m309 2
c3 -5 -3 -10 -14 -10 -12 0 -21 5 -21 10 0 6 6 10 14 10 8 0 18 -4 21 -10z
m-3072 -14 c4 -11 1 -13 -10 -9 -12 5 -15 2 -11 -8 4 -10 -1 -15 -13 -16 -18
-2 -18 -1 -1 22 20 28 28 31 35 11z m2869 -114 c-15 -45 -19 -49 -34 -38 -10
7 -18 20 -18 29 0 20 -17 31 -23 15 -4 -10 -6 -10 -6 -1 -1 18 36 36 45 21 5
-7 3 -8 -6 -3 -9 6 -10 2 -5 -16 10 -32 21 -43 29 -30 4 6 2 11 -3 11 -6 0
-11 5 -11 11 0 5 4 8 9 5 4 -3 13 5 19 18 8 18 7 30 -4 51 -8 15 -14 32 -14
38 0 7 9 -4 19 -24 18 -34 19 -38 3 -87z m-3307 98 c-3 -5 -11 -10 -16 -10 -6
0 -7 5 -4 10 3 6 11 10 16 10 6 0 7 -4 4 -10z m105 -15 c7 -9 8 -15 2 -15 -5
0 -12 7 -16 15 -3 8 -4 15 -2 15 2 0 9 -7 16 -15z m3335 -44 c-3 -2 -5 2 -5
10 0 12 -2 11 -11 -1 -9 -12 -10 -12 -5 3 3 10 6 26 7 35 0 9 5 4 10 -12 4
-17 6 -32 4 -35z m-35 24 c0 -8 -2 -15 -4 -15 -2 0 -6 7 -10 15 -3 8 -1 15 4
15 6 0 10 -7 10 -15z m-3010 -10 c0 -8 -2 -15 -4 -15 -2 0 -6 7 -10 15 -3 8
-1 15 4 15 6 0 10 -7 10 -15z m2827 -7 c-3 -8 -6 -5 -6 6 -1 11 2 17 5 13 3
-3 4 -12 1 -19z m-3277 -24 c0 -13 -4 -24 -10 -24 -5 0 -10 14 -10 31 0 17 4
28 10 24 6 -3 10 -17 10 -31z m434 10 c3 -8 2 -12 -4 -9 -6 3 -10 1 -10 -6 0
-7 -2 -10 -5 -7 -5 5 4 38 10 38 2 0 6 -7 9 -16z m-325 -31 c-15 -24 -17 -33
-7 -33 10 0 10 -2 -1 -9 -8 -5 -10 -14 -6 -22 4 -8 -1 -6 -11 3 -11 11 -19 33
-19 56 -1 36 1 37 32 38 l32 0 -20 -33z m3280 -4 c-6 -3 -11 -15 -12 -27 0
-11 -4 -19 -8 -16 -4 2 -2 20 4 39 7 23 13 31 18 23 4 -7 3 -15 -2 -19z
m-2979 -3 c0 -2 -7 -7 -16 -10 -8 -3 -12 -2 -9 4 6 10 25 14 25 6z m-200 -17
c0 8 3 11 7 8 3 -4 -1 -15 -9 -24 -9 -10 -18 -25 -21 -33 -3 -8 -4 -1 -2 15 2
17 4 35 4 40 1 6 6 3 11 -5 8 -12 10 -12 10 -1z m38 -44 c6 -14 8 -25 4 -25
-4 0 -12 11 -19 25 -6 14 -8 25 -4 25 4 0 13 -11 19 -25z m39 10 c5 -4 2 -5
-6 0 -11 6 -13 4 -8 -8 9 -23 0 -21 -13 2 -7 15 -7 19 5 17 8 -1 18 -6 22 -11z
m3120 -9 c-9 -13 -14 -32 -11 -43 3 -11 -2 -25 -12 -34 -10 -8 -15 -9 -11 -3
4 7 0 17 -9 25 -8 7 -20 22 -25 33 -6 12 4 5 21 -14 l30 -35 -6 33 c-4 21 -3
32 5 32 6 0 11 7 11 15 0 8 5 15 11 15 7 0 5 -9 -4 -24z m118 3 c-5 -15 -4
-19 4 -15 7 5 11 -1 11 -16 l0 -22 -16 22 c-9 13 -13 29 -10 37 9 23 18 17 11
-6z m-3300 -10 c4 -5 0 -18 -9 -28 -9 -10 -13 -21 -9 -24 3 -4 1 -7 -5 -7 -15
0 -16 17 -1 26 6 3 9 15 6 25 -5 20 7 26 18 8z m3341 -25 c-4 -14 -9 -24 -12
-21 -3 2 -2 17 2 31 3 15 9 25 11 22 3 -3 2 -17 -1 -32z m-3482 -8 c-5 -14 -9
-15 -15 -5 -5 8 -3 17 4 21 15 9 19 4 11 -16z m3369 1 c4 3 2 -9 -3 -27 -13
-45 -18 -48 -17 -8 1 22 -2 32 -10 31 -14 -3 -17 9 -6 21 4 4 13 0 19 -8 6 -9
14 -13 17 -9z m-3293 -32 c-7 -8 -17 -15 -23 -15 -6 0 -2 8 9 19 22 21 33 19
14 -4z m-140 -17 c0 -5 -7 -3 -15 6 -8 8 -15 18 -15 22 0 3 7 1 15 -6 8 -7 15
-17 15 -22z m37 26 c-3 -3 -12 -4 -19 -1 -8 3 -5 6 6 6 11 1 17 -2 13 -5z
m174 -31 c-12 -20 -14 -14 -5 12 4 9 9 14 11 11 3 -2 0 -13 -6 -23z m3339 12
c6 15 8 12 7 -14 0 -31 -1 -32 -14 -16 -7 11 -12 26 -12 34 1 10 3 9 7 -4 l5
-20 7 20z m-93 -80 c-13 -39 -22 -48 -14 -14 5 18 2 31 -10 40 -14 12 -15 11
-9 -11 6 -25 6 -25 -6 -2 -6 13 -17 21 -25 18 -7 -3 -12 -2 -12 2 3 21 -2 32
-13 26 -7 -5 -8 -3 -3 5 5 9 12 7 27 -8 10 -12 23 -19 28 -16 5 3 11 1 15 -5
12 -19 26 -11 15 9 -5 11 -10 26 -10 33 1 7 7 0 14 -17 9 -22 10 -38 3 -60z
m-3299 61 c-10 -7 -18 -22 -18 -32 0 -17 3 -16 20 6 10 14 21 22 24 19 4 -3
-3 -18 -15 -33 -11 -14 -25 -39 -29 -54 -7 -24 -8 -24 -9 -5 -1 14 -6 21 -14
17 -8 -3 -18 6 -25 21 -9 20 -9 25 0 19 8 -5 9 -2 4 11 -6 16 -4 16 10 4 10
-8 12 -15 5 -17 -6 -2 -11 -8 -11 -14 0 -6 6 -8 14 -5 8 3 17 1 20 -6 3 -7 3
3 0 21 -6 33 8 62 30 62 6 0 3 -7 -6 -14z m-141 -18 c-3 -8 -6 -5 -6 6 -1 11
2 17 5 13 3 -3 4 -12 1 -19z m-23 -3 c3 -8 1 -15 -4 -15 -6 0 -10 7 -10 15 0
8 2 15 4 15 2 0 6 -7 10 -15z m3298 -3 c-3 -9 -1 -13 5 -9 6 4 8 -4 5 -21 l-5
-27 -8 27 c-4 14 -9 31 -12 36 -4 5 0 9 7 9 8 0 12 -7 8 -15z m291 -35 c-4
-18 -3 -19 6 -7 12 17 15 2 3 -17 -5 -8 -12 -3 -23 16 -15 25 -14 27 1 28 13
1 17 -4 13 -20z m54 -15 c1 -28 -1 -32 -7 -17 -7 16 -9 13 -10 -15 0 -30 -2
-32 -12 -16 -8 14 -7 27 6 52 8 19 17 34 18 34 2 0 4 -17 5 -38z m-3647 19 c0
-6 -5 -13 -11 -17 -6 -3 -9 -15 -6 -25 3 -11 1 -17 -4 -14 -13 8 -6 65 9 65 6
0 12 -4 12 -9z m3450 -66 c0 -5 -9 4 -20 20 -11 17 -20 35 -20 40 0 6 9 -3 20
-20 11 -16 20 -34 20 -40z m38 32 c0 -13 -6 -24 -13 -24 -10 0 -11 6 -2 24 5
13 11 23 12 23 2 0 3 -10 3 -23z m-3382 -9 c4 4 2 -1 -5 -10 -14 -19 -26 -25
-16 -9 3 5 1 12 -5 16 -5 3 -10 12 -10 18 0 7 6 4 14 -5 7 -10 17 -14 22 -10z
m3235 -1 c-10 -9 -11 -8 -5 6 3 10 9 15 12 12 3 -3 0 -11 -7 -18z m-42 -37 c0
-9 -4 -8 -9 5 -5 11 -9 27 -9 35 0 9 4 8 9 -5 5 -11 9 -27 9 -35z m228 8 c-11
-7 -2 -12 16 -9 10 1 9 -17 -2 -23 -13 -8 -34 21 -25 36 5 10 4 10 -5 2 -10
-9 -10 -18 2 -41 13 -24 13 -31 2 -46 -13 -17 -14 -17 -20 3 -4 12 -4 24 -1
27 3 4 6 -1 6 -11 0 -9 5 -14 10 -11 7 4 6 13 -1 26 -9 17 -13 18 -27 7 -15
-11 -15 -11 -5 3 7 9 10 19 5 23 -4 4 1 12 11 17 9 6 17 17 17 26 0 14 2 14
14 -3 11 -14 11 -21 3 -26z m-3402 11 c-5 -15 -4 -19 5 -14 7 4 5 -5 -4 -23
-9 -17 -22 -34 -28 -38 -7 -5 -5 4 5 19 19 30 22 41 7 32 -13 -8 -13 1 2 25
16 26 21 25 13 -1z m-63 -14 c-2 -14 -8 -22 -13 -19 -5 3 -5 14 1 25 14 26 18
24 12 -6z m3305 3 c-3 -8 -6 -5 -6 6 -1 11 2 17 5 13 3 -3 4 -12 1 -19z
m-3460 -10 c-3 -8 -6 -5 -6 6 -1 11 2 17 5 13 3 -3 4 -12 1 -19z m24 -9 c-5
-13 -10 -19 -10 -12 -1 15 10 45 15 40 3 -2 0 -15 -5 -28z m3398 -29 c2 23 3
23 10 5 5 -11 4 -21 0 -23 -5 -2 -9 -13 -10 -25 -1 -20 -2 -20 -9 3 -7 21 -8
18 -9 -19 -1 -24 -4 -42 -7 -38 -3 3 -2 41 2 84 8 75 9 76 15 33 3 -27 7 -35
8 -20z m138 35 c0 -8 -4 -12 -9 -9 -5 3 -6 10 -3 15 9 13 12 11 12 -6z m169
-13 c-17 -16 -18 -16 -5 5 7 12 15 20 18 17 3 -2 -3 -12 -13 -22z m-3680 -8
c-4 -9 -9 -15 -11 -12 -3 3 -3 13 1 22 4 9 9 15 11 12 3 -3 3 -13 -1 -22z
m124 -4 c-5 -3 -7 -16 -3 -28 3 -13 10 -19 17 -15 6 4 -1 -9 -15 -28 -30 -38
-39 -40 -54 -13 -5 11 -14 23 -20 27 -6 5 -3 7 8 3 15 -5 22 4 18 27 -2 15 17
6 33 -15 l16 -23 -10 26 c-10 32 -2 78 11 58 4 -8 4 -16 -1 -19z m3303 13 c-7
-2 -13 -12 -13 -20 0 -9 -3 -14 -6 -10 -10 10 4 37 18 36 10 0 10 -2 1 -6z
m-3470 -33 c3 -11 1 -18 -4 -14 -5 3 -9 12 -9 20 0 20 7 17 13 -6z m3497 -5
c14 -18 13 -19 -1 -8 -9 7 -19 10 -23 6 -4 -4 -4 1 0 10 3 10 7 17 8 15 1 -2
8 -12 16 -23z m279 -28 l12 -22 -5 23 c-2 12 -1 20 4 17 9 -5 8 -90 -1 -100
-4 -3 -6 2 -6 12 0 37 -3 50 -19 69 -14 18 -15 18 -8 -6 7 -28 2 -26 -14 5 -9
17 -7 21 8 22 9 1 23 -8 29 -20z m-139 -3 c0 -8 -4 -12 -10 -9 -5 3 -10 10
-10 16 0 5 5 9 10 9 6 0 10 -7 10 -16z m-3630 -29 c0 -5 -5 -3 -10 5 -5 8 -10
20 -10 25 0 6 5 3 10 -5 5 -8 10 -19 10 -25z m3510 29 c0 -8 -19 -13 -24 -6
-3 5 1 9 9 9 8 0 15 -2 15 -3z m156 -6 c5 -7 3 -8 -6 -3 -9 5 -10 2 -6 -13 7
-22 -8 -39 -19 -22 -8 13 3 50 15 50 5 0 12 -5 16 -12z m-3554 -62 c8 -14 7
-17 -3 -11 -9 6 -11 3 -6 -9 4 -10 3 -15 -3 -11 -5 3 -18 -11 -28 -32 -10 -21
-24 -37 -31 -35 -7 1 -11 -3 -8 -10 2 -7 10 -12 16 -10 8 1 6 -9 -5 -27 -10
-17 -20 -28 -23 -26 -2 3 1 11 7 17 14 14 16 28 3 28 -5 0 -13 -9 -16 -20 -4
-11 -11 -18 -16 -15 -5 4 -9 4 -9 1 0 -2 -3 -12 -7 -22 -4 -11 -3 -15 5 -10 6
3 14 1 18 -5 5 -8 3 -9 -6 -4 -10 6 -12 4 -7 -9 5 -11 3 -15 -5 -10 -8 5 -9 2
-4 -11 6 -16 4 -16 -10 -4 -16 13 -17 11 -11 -21 5 -25 4 -31 -3 -20 -14 22
-12 57 3 63 8 3 13 18 12 36 -1 16 2 28 7 25 4 -3 8 0 8 6 0 6 4 9 9 5 6 -3
13 10 17 30 3 19 11 35 16 35 6 0 4 8 -3 18 -13 15 -12 16 3 4 9 -8 14 -20 11
-28 -3 -8 -2 -14 1 -14 15 0 26 52 15 71 -8 16 -7 25 6 39 9 10 14 25 10 32
-10 19 25 -24 37 -46z m3498 44 c0 -5 -2 -10 -4 -10 -3 0 -8 5 -11 10 -3 6 -1
10 4 10 6 0 11 -4 11 -10z m-3628 -46 c-8 -15 -10 -15 -15 0 -4 11 -3 15 4 10
8 -4 9 1 5 17 -6 20 -5 21 4 7 7 -11 8 -24 2 -34z m3530 12 c6 4 6 -2 -1 -15
-16 -29 -18 -27 -18 17 0 20 2 27 4 14 3 -12 9 -19 15 -16z m172 8 c3 -8 2
-12 -4 -9 -6 3 -10 10 -10 16 0 14 7 11 14 -7z m-43 -19 c5 3 6 -1 3 -10 -6
-14 -8 -14 -20 2 -7 10 -13 23 -13 28 0 6 4 2 10 -8 6 -9 14 -15 20 -12z
m-3691 9 c0 -1 -3 -10 -6 -18 -5 -13 -9 -14 -20 -5 -20 16 -17 25 6 25 11 0
20 -1 20 -2z m3735 -62 c-2 -3 -7 3 -11 12 -5 13 -9 14 -21 5 -12 -11 -12 -9
-2 14 l12 27 14 -27 c7 -14 11 -28 8 -31z m-133 3 l11 -20 -23 20 c-20 17 -23
18 -17 3 4 -10 2 -18 -3 -18 -12 0 -12 6 -3 38 6 25 10 22 35 -23z m153 35 c3
-5 1 -10 -4 -10 -6 0 -11 5 -11 10 0 6 2 10 4 10 3 0 8 -4 11 -10z m-3795 -25
c0 -14 -4 -25 -9 -25 -4 0 -6 11 -3 25 2 14 6 25 8 25 2 0 4 -11 4 -25z m25
-4 c3 -5 1 -12 -5 -16 -5 -3 -10 1 -10 9 0 18 6 21 15 7z m3649 -34 c2 -15 -1
-24 -6 -21 -5 3 -7 11 -5 17 2 7 0 21 -6 32 -7 15 -7 17 3 9 6 -6 13 -23 14
-37z m145 12 c9 -27 9 -30 -4 -19 -21 17 -19 -4 1 -25 9 -9 13 -19 9 -23 -4
-4 -10 -2 -12 5 -2 7 -10 10 -18 7 -7 -3 -16 -1 -20 5 -3 7 0 8 9 5 9 -3 16
-1 16 5 0 6 -5 11 -11 11 -6 0 -7 5 -2 13 8 12 9 17 12 37 2 18 9 11 20 -21z
m109 -17 c2 -7 8 -12 14 -12 6 0 7 7 4 16 -3 8 -2 12 4 9 6 -3 8 -18 4 -33 -5
-25 -4 -26 9 -9 14 17 15 16 13 -7 -1 -33 -16 -28 -42 13 -14 22 -23 29 -26
21 -3 -11 -6 -10 -10 2 -5 11 -2 15 10 14 9 -2 18 -8 20 -14z m-3914 -26 c-6
-15 -34 -31 -34 -19 0 5 30 32 37 33 1 0 0 -6 -3 -14z m3916 -16 c6 -11 8 -20
6 -20 -3 0 -10 9 -16 20 -6 11 -8 20 -6 20 3 0 10 -9 16 -20z m-223 4 c-3 -4
5 -23 20 -43 l25 -36 -32 35 -32 35 16 -39 c13 -31 13 -36 2 -27 -11 9 -15 9
-19 -1 -2 -7 -8 -9 -13 -5 -5 4 -3 12 4 16 7 4 10 15 6 24 -6 16 10 47 24 47
3 0 3 -3 -1 -6z m149 -52 c-4 -3 -14 3 -24 13 -16 18 -16 18 1 5 17 -12 18
-11 13 16 l-6 29 11 -28 c6 -16 8 -31 5 -35z m-3940 3 c-4 -16 -2 -25 5 -25 8
0 8 -4 -1 -15 -23 -27 -2 -16 34 19 19 19 31 37 25 40 -5 2 -4 3 3 2 7 -2 12
-8 11 -13 -1 -5 -70 -150 -154 -321 l-152 -312 -76 0 c-64 0 -79 -3 -93 -20
-10 -11 -13 -22 -8 -25 19 -11 10 -22 -17 -21 -25 1 -48 26 -23 26 6 0 8 -4 5
-10 -3 -6 1 -10 9 -10 21 0 20 2 -9 34 -19 20 -33 26 -66 26 l-43 0 32 33 c46
47 40 59 -7 13 -31 -31 -39 -35 -45 -21 -3 9 -2 13 4 10 5 -3 19 4 31 16 17
17 19 23 8 31 -11 8 -10 9 3 4 12 -4 34 10 69 45 27 27 54 47 59 44 5 -3 23 7
40 23 30 30 40 49 18 36 -9 -5 -9 -2 1 9 7 9 19 17 25 17 18 0 68 55 59 65 -5
4 -3 5 3 2 6 -3 46 30 90 75 44 44 70 77 59 74 -11 -3 -27 -1 -35 5 -12 8 -11
9 6 4 29 -8 42 13 39 58 l-3 38 19 -22 c23 -27 24 -30 4 -23 -16 7 -21 -11 -6
-20 17 -11 43 6 38 24 -2 9 4 22 14 28 10 7 18 20 17 30 -2 28 2 52 8 52 3 0
3 -11 0 -25z m3751 3 c-3 -8 -6 -5 -6 6 -1 11 2 17 5 13 3 -3 4 -12 1 -19z
m176 -41 c-5 -9 -13 -1 -35 38 -9 16 -6 15 15 -5 14 -13 23 -28 20 -33z m121
27 c9 -8 16 -20 16 -26 0 -6 -9 -1 -20 12 -29 33 -25 44 4 14z m-507 -26 c-3
-7 -5 -2 -5 12 0 14 2 19 5 13 2 -7 2 -19 0 -25z m432 2 c10 -22 10 -23 -2 -8
-12 15 -14 15 -25 -3 -11 -17 -10 -20 5 -17 12 2 19 -4 21 -19 2 -13 8 -23 13
-23 15 0 10 -17 -7 -24 -8 -3 -12 -2 -9 4 3 6 2 10 -3 10 -5 0 -7 12 -4 28 5
24 3 25 -10 14 -13 -10 -17 -10 -20 0 -4 11 21 73 27 66 1 -2 8 -14 14 -28z
m-136 -17 c-3 -7 -9 -10 -14 -7 -14 8 -11 21 5 21 8 0 12 -6 9 -14z m-46 1
c-3 -3 -12 -4 -19 -1 -8 3 -5 6 6 6 11 1 17 -2 13 -5z m348 -31 c0 -12 -8 -32
-18 -44 -19 -21 -19 -21 -33 -1 -7 11 -18 31 -23 44 -9 23 -7 24 33 24 37 -1
42 -3 41 -23z m-265 -23 c7 11 9 10 7 -7 -1 -21 -2 -21 -19 -6 -10 9 -18 23
-17 32 0 9 4 6 10 -9 8 -20 12 -22 19 -10z m-3750 -15 c0 -5 -5 -3 -10 5 -5 8
-10 20 -10 25 0 6 5 3 10 -5 5 -8 10 -19 10 -25z m-28 -3 c-7 -2 -10 -8 -6
-13 3 -5 0 -9 -5 -9 -13 0 -13 3 -5 24 3 9 11 13 17 9 8 -5 7 -8 -1 -11z
m3752 0 c3 -5 -1 -9 -9 -9 -8 0 -12 4 -9 9 3 4 7 8 9 8 2 0 6 -4 9 -8z m312
-17 c1 -7 -4 -16 -12 -19 -8 -3 -14 0 -14 6 0 6 -6 6 -17 -3 -10 -7 -7 -1 6
14 25 27 33 28 37 2z m-140 -25 c1 -39 1 -39 -18 -18 -10 12 -18 26 -18 32 0
6 4 5 9 -2 6 -10 10 -9 14 7 8 32 13 25 13 -19z m-3936 -16 c-5 -12 -6 -25 -2
-29 3 -3 -1 -3 -11 1 -10 3 -17 1 -17 -5 0 -6 5 -11 11 -11 5 0 7 -5 3 -11 -5
-8 -8 -8 -14 0 -5 10 -30 -25 -35 -49 0 -3 -6 -14 -13 -25 -11 -18 -12 -18 -8
7 6 35 16 51 58 98 10 11 15 26 12 33 -3 8 2 14 10 14 11 0 12 -6 6 -23z
m-222 -4 c-7 -11 -19 -22 -26 -25 -13 -5 -8 8 13 32 17 20 26 15 13 -7z m4192
-45 c-1 -5 -2 -19 -2 -30 1 -15 -1 -16 -8 -6 -4 8 -6 21 -2 29 4 11 1 13 -8 7
-10 -6 -11 -4 -4 6 5 8 8 23 6 34 -1 16 1 15 10 -5 6 -14 10 -29 8 -35z m80
27 c0 -15 -2 -15 -10 -2 -13 20 -13 33 0 25 6 -3 10 -14 10 -23z m-206 -14
c-3 -4 -11 -8 -17 -7 -9 0 -9 2 0 5 7 3 9 13 6 22 -4 14 -3 14 5 2 6 -8 8 -18
6 -22z m-4147 -4 c-3 -3 -12 -4 -19 -1 -8 3 -5 6 6 6 11 1 17 -2 13 -5z m4403
-4 c0 -5 -2 -10 -4 -10 -3 0 -8 5 -11 10 -3 6 -1 10 4 10 6 0 11 -4 11 -10z
m30 0 c0 -5 -4 -10 -10 -10 -5 0 -10 5 -10 10 0 6 5 10 10 10 6 0 10 -4 10
-10z m-258 -14 c6 4 8 2 5 -4 -9 -13 2 -44 13 -37 5 3 11 1 15 -4 3 -6 -3 -8
-15 -6 -11 2 -20 -1 -20 -7 0 -6 -7 -5 -17 3 -9 8 -19 13 -22 12 -3 -2 -6 2
-5 7 4 44 5 45 20 17 9 -16 18 -27 21 -24 2 3 0 14 -6 25 -6 12 -11 24 -10 29
0 4 3 2 6 -5 2 -6 10 -9 15 -6z m-4172 -11 c-7 -9 -15 -13 -17 -11 -7 7 7 26
19 26 6 0 6 -6 -2 -15z m4388 -26 c-3 -8 -7 -3 -11 10 -4 17 -3 21 5 13 5 -5
8 -16 6 -23z m49 9 c-3 -8 -6 -5 -6 6 -1 11 2 17 5 13 3 -3 4 -12 1 -19z
m-132 -18 c-3 -5 -1 -10 5 -10 7 0 6 -5 -2 -14 -17 -18 -32 2 -16 21 12 15 22
17 13 3z m-4402 -17 c-7 -2 -13 -12 -13 -20 0 -9 -3 -14 -6 -10 -10 10 4 37
18 36 10 0 10 -2 1 -6z m31 -17 c-3 -8 -13 -17 -22 -21 -13 -5 -13 -2 3 15 21
24 26 25 19 6z m4280 -26 c-5 -5 -10 3 -11 18 -1 22 0 24 9 8 6 -10 6 -22 2
-26z m226 -6 c0 -7 -4 -15 -9 -18 -5 -4 -7 4 -4 16 3 17 2 19 -5 9 -7 -10 -9
-6 -9 15 0 26 0 27 13 9 8 -10 14 -24 14 -31z m-110 4 c0 -4 -4 -8 -9 -8 -6 0
-12 4 -15 8 -3 5 1 9 9 9 8 0 15 -4 15 -9z m-613 -20 c-3 -8 -6 -5 -6 6 -1 11
2 17 5 13 3 -3 4 -12 1 -19z m517 -5 c-7 -38 -16 -45 -10 -8 5 36 5 35 10 35
3 0 2 -12 0 -27z m116 -13 c0 -11 -2 -20 -4 -20 -2 0 -6 9 -9 20 -3 11 -1 20
4 20 5 0 9 -9 9 -20z m-4522 -14 c-13 -13 -25 -22 -27 -20 -6 5 30 44 41 44 5
0 -2 -11 -14 -24z m4641 -36 c0 -8 -6 -4 -13 9 -8 14 -11 32 -8 40 5 12 8 10
13 -9 4 -14 7 -32 8 -40z m50 3 c1 -7 -2 -13 -6 -13 -5 0 -9 17 -10 38 -1 32
0 33 7 12 4 -14 8 -31 9 -37z m-312 15 c-3 -7 -5 -2 -5 12 0 14 2 19 5 13 2
-7 2 -19 0 -25z m-4029 -3 c-3 -3 -9 2 -12 12 -6 14 -5 15 5 6 7 -7 10 -15 7
-18z m4093 3 c11 -21 11 -22 -4 -9 -10 7 -17 17 -17 22 0 15 9 10 21 -13z
m225 -37 c4 -20 7 -22 15 -10 14 22 10 -3 -5 -30 -11 -20 -14 -21 -19 -7 -5
12 -3 15 5 10 8 -5 9 -2 3 12 -4 10 -9 35 -11 54 -3 33 0 26 12 -29z m-4339
17 c-3 -8 -6 -5 -6 6 -1 11 2 17 5 13 3 -3 4 -12 1 -19z m3560 -10 c-3 -8 -6
-5 -6 6 -1 11 2 17 5 13 3 -3 4 -12 1 -19z m508 2 c3 -5 1 -10 -4 -10 -6 0
-11 5 -11 10 0 6 2 10 4 10 3 0 8 -4 11 -10z m-4073 -14 c7 4 8 2 4 -5 -9 -13
-26 -5 -25 12 0 9 2 8 6 -1 2 -6 10 -9 15 -6z m4170 -46 c5 0 6 -4 3 -10 -3
-5 -2 -10 3 -10 11 0 25 -38 22 -59 -1 -9 4 -12 16 -7 10 4 15 4 11 0 -4 -4
-2 -13 4 -21 9 -9 8 -13 0 -13 -6 0 -11 5 -11 10 0 6 -11 10 -25 10 -25 0 -35
15 -14 22 18 6 -11 57 -30 53 -11 -2 -17 4 -17 15 0 10 4 16 9 13 5 -3 6 5 3
18 l-6 24 11 -22 c7 -13 16 -23 21 -23z m-4187 21 c3 -5 2 -12 -3 -15 -5 -3
-9 1 -9 9 0 17 3 19 12 6z m3576 -44 c-8 -8 -11 -3 -11 19 1 25 2 27 11 11 8
-14 8 -22 0 -30z m69 12 c0 -5 -4 -9 -10 -9 -5 0 -10 7 -10 16 0 8 5 12 10 9
6 -3 10 -10 10 -16z m731 -12 c-10 -9 -11 -8 -5 6 3 10 9 15 12 12 3 -3 0 -11
-7 -18z m-4416 -23 c-8 -20 -15 -39 -15 -42 0 -3 -2 -3 -5 0 -6 5 22 78 30 78
3 0 -2 -16 -10 -36z m-425 -5 c0 -14 -17 -10 -23 5 -4 10 -1 13 9 9 7 -3 14
-9 14 -14z m4917 -7 c3 -13 3 -26 -1 -29 -3 -4 -6 3 -6 15 0 12 -4 22 -10 22
-5 0 -10 -5 -10 -12 0 -6 -7 -3 -15 8 -17 23 -20 4 -4 -29 10 -21 10 -21 -5
-3 -26 33 -20 53 14 52 23 -1 32 -7 37 -24z m-286 -15 c-8 -8 -11 -7 -11 4 0
20 13 34 18 19 3 -7 -1 -17 -7 -23z m-4744 -12 c0 -8 -4 -15 -8 -15 -11 0 -20
16 -12 24 11 11 20 7 20 -9z m5433 11 c0 -3 -4 -8 -10 -11 -5 -3 -10 -1 -10 4
0 6 5 11 10 11 6 0 10 -2 10 -4z m-428 -38 c-8 -8 -9 -4 -5 13 4 13 8 18 11
10 2 -7 -1 -18 -6 -23z m398 22 c0 -5 -7 -10 -15 -10 -8 0 -15 5 -15 10 0 6 7
10 15 10 8 0 15 -4 15 -10z m-5380 -29 c-1 -31 -14 -51 -31 -46 -11 4 -19 2
-19 -4 0 -6 5 -11 12 -11 6 0 9 -3 5 -6 -3 -3 -13 -2 -22 3 -14 8 -14 11 5 28
23 21 27 37 6 29 -8 -3 -16 -1 -19 3 -3 5 10 9 29 10 19 0 34 -2 34 -6z m5410
-1 c0 -5 -5 -10 -11 -10 -5 0 -7 5 -4 10 3 6 8 10 11 10 2 0 4 -4 4 -10z
m-5396 -46 c3 -8 2 -12 -4 -9 -6 3 -10 10 -10 16 0 14 7 11 14 -7z m5381 -4
c-3 -5 -1 -10 6 -10 7 0 10 -3 6 -6 -9 -9 -28 6 -22 17 4 5 8 9 11 9 3 0 2 -4
-1 -10z m-5298 -16 c-3 -3 -12 -4 -19 -1 -8 3 -5 6 6 6 11 1 17 -2 13 -5z
m260 0 c-3 -3 -12 -4 -19 -1 -8 3 -5 6 6 6 11 1 17 -2 13 -5z m3770 0 c-3 -3
-12 -4 -19 -1 -8 3 -5 6 6 6 11 1 17 -2 13 -5z m680 0 c-3 -3 -12 -4 -19 -1
-8 3 -5 6 6 6 11 1 17 -2 13 -5z m-6030 -680 c-3 -3 -12 -4 -19 -1 -8 3 -5 6
6 6 11 1 17 -2 13 -5z"/>
<path d="M5708 4763 c7 -3 16 -2 19 1 4 3 -2 6 -13 5 -11 0 -14 -3 -6 -6z"/>
<path d="M5790 4690 c0 -5 7 -10 16 -10 8 0 12 5 9 10 -3 6 -10 10 -16 10 -5
0 -9 -4 -9 -10z"/>
<path d="M5955 4701 c-7 -12 12 -24 25 -16 11 7 4 25 -10 25 -5 0 -11 -4 -15
-9z"/>
<path d="M4795 4229 c-4 -6 -5 -12 -2 -15 2 -3 7 2 10 11 7 17 1 20 -8 4z"/>
<path d="M6188 4543 c7 -3 16 -2 19 1 4 3 -2 6 -13 5 -11 0 -14 -3 -6 -6z"/>
<path d="M6014 4513 c2 -9 8 -18 15 -19 6 -1 7 0 1 3 -5 2 -8 9 -5 13 3 5 1
11 -4 14 -5 4 -8 -2 -7 -11z"/>
<path d="M4170 3660 c0 -5 5 -10 10 -10 6 0 10 5 10 10 0 6 -4 10 -10 10 -5 0
-10 -4 -10 -10z"/>
<path d="M4395 3840 c-3 -5 -2 -10 4 -10 5 0 13 5 16 10 3 6 2 10 -4 10 -5 0
-13 -4 -16 -10z"/>
<path d="M2744 3251 c-2 -2 -4 -10 -4 -17 0 -17 32 -27 42 -12 6 10 8 10 8 1
0 -10 54 -13 238 -13 249 0 285 4 280 27 -2 11 -52 14 -281 16 -153 1 -281 0
-283 -2z m499 -18 c-7 -2 -21 -2 -30 0 -10 3 -4 5 12 5 17 0 24 -2 18 -5z"/>
<path d="M2740 3148 c0 -16 6 -28 13 -28 9 0 9 -2 -1 -9 -14 -9 -13 -32 3 -43
7 -5 6 -11 -1 -15 -7 -5 -12 -20 -12 -35 l1 -27 98 2 c55 1 99 -1 99 -5 0 -5
-6 -8 -14 -8 -9 0 -12 -7 -9 -19 4 -17 -3 -19 -69 -23 -73 -4 -93 3 -83 30 2
6 -1 12 -8 12 -7 0 -13 -8 -14 -19 -2 -21 39 -47 58 -36 8 5 10 4 5 -3 -9 -15
-39 -15 -54 0 -9 9 -12 8 -12 -5 0 -9 6 -17 13 -18 81 -5 155 -4 151 3 -3 4
-1 8 5 8 5 0 13 -4 16 -10 9 -14 358 -13 372 1 18 18 4 39 -26 40 -25 1 -25 2
4 8 l30 6 2 108 2 107 -255 0 c-219 0 -254 -2 -254 -15 0 -13 33 -15 239 -15
182 0 240 3 244 13 3 6 5 3 4 -8 -1 -20 -7 -20 -249 -17 -239 3 -248 3 -248
22 0 22 -16 27 -23 8 -4 -10 -8 -9 -16 2 -9 12 -11 10 -11 -12z m281 -45 c15
-15 3 -33 -22 -33 -11 0 -19 -7 -20 -17 -1 -14 -2 -14 -5 -3 -4 12 -22 15 -95
14 -68 -1 -94 2 -105 13 -29 29 -1 38 120 37 69 0 121 -5 127 -11z m-174 -58
c57 -1 89 -19 63 -35 -8 -5 -43 -10 -78 -10 -47 0 -64 4 -68 15 -7 17 16 51
25 38 3 -4 30 -8 58 -8z m105 -7 c-9 -9 -15 -9 -24 0 -9 9 -7 12 12 12 19 0
21 -3 12 -12z m31 -15 c-13 -2 -23 -9 -23 -14 0 -6 -5 -7 -11 -3 -15 9 9 24
36 22 17 -1 17 -1 -2 -5z m44 -17 c-3 -7 0 -19 6 -25 8 -8 8 -11 0 -11 -7 0
-15 5 -18 10 -7 12 0 40 11 40 3 0 4 -6 1 -14z m-39 -13 c0 -5 2 -16 7 -27 13
-29 -37 -44 -65 -19 -8 7 17 38 29 36 6 -2 11 2 11 7 0 6 5 10 10 10 6 0 9 -3
8 -7z m42 -43 c0 -5 -5 -10 -11 -10 -5 0 -7 5 -4 10 3 6 8 10 11 10 2 0 4 -4
4 -10z m148 -7 c-27 -2 -69 -2 -95 0 -27 2 -5 3 47 3 52 0 74 -1 48 -3z m109
-21 c6 -4 -44 -6 -110 -4 -187 4 -208 8 -47 10 80 1 150 -2 157 -6z"/>
<path d="M4194 2906 c-11 -28 1 -51 27 -54 29 -3 44 18 34 49 -8 23 -53 26
-61 5z"/>
<path d="M2090 2830 c0 -5 5 -10 11 -10 5 0 7 5 4 10 -3 6 -8 10 -11 10 -2 0
-4 -4 -4 -10z"/>
<path d="M5344 2726 c-11 -28 1 -51 25 -51 28 0 47 25 38 49 -8 20 -56 21 -63
2z"/>
<path d="M5525 2260 c-3 -5 -1 -10 4 -10 6 0 11 5 11 10 0 6 -2 10 -4 10 -3 0
-8 -4 -11 -10z"/>
<path d="M2446 2301 c-3 -5 0 -11 7 -14 8 -3 14 1 14 9 0 16 -13 19 -21 5z"/>
<path d="M2350 2054 c0 -8 -4 -12 -10 -9 -5 3 -10 1 -10 -4 0 -14 13 -14 28 1
15 15 16 28 2 28 -5 0 -10 -7 -10 -16z"/>
<path d="M2305 1651 c-8 -27 11 -54 21 -28 3 9 1 24 -4 33 -9 16 -10 15 -17
-5z"/>
<path d="M2261 1596 c-9 -10 -10 -20 -3 -32 9 -16 11 -15 22 5 15 28 -1 49
-19 27z m12 -11 c-3 -9 -8 -14 -10 -11 -3 3 -2 9 2 15 9 16 15 13 8 -4z"/>
<path d="M1572 918 c-23 -22 -40 -44 -36 -47 5 -5 84 74 84 84 0 10 -7 4 -48
-37z"/>
<path d="M6091 1340 c0 -8 6 -24 14 -34 13 -17 15 -17 15 -3 0 10 5 14 15 11
8 -4 15 -1 15 6 0 6 -4 8 -10 5 -5 -3 -10 1 -10 9 0 9 -5 16 -11 16 -6 0 -9
-7 -5 -15 3 -8 1 -15 -4 -15 -5 0 -11 8 -13 18 -3 12 -5 13 -6 2z"/>
<path d="M1356 775 c-9 -26 -7 -32 5 -12 6 10 9 21 6 23 -2 3 -7 -2 -11 -11z"/>
</g>
</svg>
